<svg width="64" height="64" viewBox="0 0 64 64" fill="none" xmlns="http://www.w3.org/2000/svg">
<path d="M0 32C0 14.3269 14.3269 0 32 0C49.6731 0 64 14.3269 64 32C64 49.6731 49.6731 64 32 64C14.3269 64 0 49.6731 0 32Z" fill="#F59E0B" fill-opacity="0.1"/>
<path d="M29.2493 36.6667C29.1303 36.2052 28.8898 35.7841 28.5528 35.4472C28.2159 35.1102 27.7948 34.8697 27.3333 34.7507L19.1533 32.6413C19.0138 32.6017 18.8909 32.5177 18.8035 32.4019C18.716 32.2862 18.6687 32.1451 18.6687 32C18.6687 31.8549 18.716 31.7138 18.8035 31.5981C18.8909 31.4823 19.0138 31.3983 19.1533 31.3587L27.3333 29.248C27.7946 29.1291 28.2156 28.8888 28.5525 28.552C28.8895 28.2153 29.1301 27.7945 29.2493 27.3333L31.3587 19.1533C31.3979 19.0132 31.4818 18.8898 31.5978 18.8018C31.7137 18.7139 31.8552 18.6663 32.0007 18.6663C32.1462 18.6663 32.2877 18.7139 32.4036 18.8018C32.5195 18.8898 32.6035 19.0132 32.6427 19.1533L34.7507 27.3333C34.8697 27.7947 35.1102 28.2158 35.4472 28.5528C35.7841 28.8898 36.2052 29.1303 36.6667 29.2493L44.8467 31.3573C44.9873 31.3961 45.1114 31.48 45.1998 31.5961C45.2882 31.7122 45.3361 31.8541 45.3361 32C45.3361 32.1459 45.2882 32.2878 45.1998 32.4039C45.1114 32.52 44.9873 32.6039 44.8467 32.6427L36.6667 34.7507C36.2052 34.8697 35.7841 35.1102 35.4472 35.4472C35.1102 35.7841 34.8697 36.2052 34.7507 36.6667L32.6413 44.8467C32.6021 44.9868 32.5182 45.1102 32.4022 45.1981C32.2863 45.2861 32.1448 45.3337 31.9993 45.3337C31.8538 45.3337 31.7123 45.2861 31.5964 45.1981C31.4805 45.1102 31.3965 44.9868 31.3573 44.8467L29.2493 36.6667Z" stroke="black" stroke-width="2" stroke-linecap="round" stroke-linejoin="round"/>
<path d="M42.6667 20V25.3333" stroke="black" stroke-width="2" stroke-linecap="round" stroke-linejoin="round"/>
<path d="M45.3333 22.6667H40" stroke="black" stroke-width="2" stroke-linecap="round" stroke-linejoin="round"/>
<path d="M21.3333 38.6667V41.3334" stroke="black" stroke-width="2" stroke-linecap="round" stroke-linejoin="round"/>
<path d="M22.6667 40H20" stroke="black" stroke-width="2" stroke-linecap="round" stroke-linejoin="round"/>
</svg>
