<svg width="64" height="64" viewBox="0 0 64 64" fill="none" xmlns="http://www.w3.org/2000/svg">
<path d="M0 32C0 14.3269 14.3269 0 32 0C49.6731 0 64 14.3269 64 32C64 49.6731 49.6731 64 32 64C14.3269 64 0 49.6731 0 32Z" fill="#3B82F6" fill-opacity="0.1"/>
<path d="M25.3333 37.7333C28.2667 37.7333 30.6667 35.2933 30.6667 32.3333C30.6667 30.7866 29.9067 29.32 28.3867 28.08C26.8667 26.84 25.72 25 25.3333 23.0667C24.9467 25 23.8133 26.8533 22.28 28.08C20.7467 29.3067 20 30.8 20 32.3333C20 35.2933 22.4 37.7333 25.3333 37.7333Z" stroke="#3B82F6" stroke-width="2" stroke-linecap="round" stroke-linejoin="round"/>
<path d="M32.7467 24.8C33.6637 23.3348 34.3137 21.7187 34.6667 20.0267C35.3333 23.36 37.3333 26.56 40 28.6933C42.6667 30.8267 44 33.36 44 36.0267C44.0076 37.8697 43.4678 39.6735 42.4491 41.2095C41.4303 42.7454 39.9784 43.9442 38.2775 44.654C36.5766 45.3638 34.7032 45.5526 32.8949 45.1964C31.0866 44.8402 29.4247 43.9551 28.12 42.6533" stroke="#3B82F6" stroke-width="2" stroke-linecap="round" stroke-linejoin="round"/>
</svg>
