<svg width="64" height="64" viewBox="0 0 64 64" fill="none" xmlns="http://www.w3.org/2000/svg">
<path d="M0 32C0 14.3269 14.3269 0 32 0C49.6731 0 64 14.3269 64 32C64 49.6731 49.6731 64 32 64C14.3269 64 0 49.6731 0 32Z" fill="#A855F7" fill-opacity="0.1"/>
<path d="M18.6667 24C19.4667 24.6667 20.2667 25.3334 22 25.3334C25.3333 25.3334 25.3333 22.6667 28.6667 22.6667C32.1333 22.6667 31.8667 25.3334 35.3333 25.3334C38.6667 25.3334 38.6667 22.6667 42 22.6667C43.7333 22.6667 44.5333 23.3334 45.3333 24" stroke="black" stroke-width="2" stroke-linecap="round" stroke-linejoin="round"/>
<path d="M18.6667 32C19.4667 32.6667 20.2667 33.3334 22 33.3334C25.3333 33.3334 25.3333 30.6667 28.6667 30.6667C32.1333 30.6667 31.8667 33.3334 35.3333 33.3334C38.6667 33.3334 38.6667 30.6667 42 30.6667C43.7333 30.6667 44.5333 31.3334 45.3333 32" stroke="black" stroke-width="2" stroke-linecap="round" stroke-linejoin="round"/>
<path d="M18.6667 40C19.4667 40.6667 20.2667 41.3334 22 41.3334C25.3333 41.3334 25.3333 38.6667 28.6667 38.6667C32.1333 38.6667 31.8667 41.3334 35.3333 41.3334C38.6667 41.3334 38.6667 38.6667 42 38.6667C43.7333 38.6667 44.5333 39.3334 45.3333 40" stroke="black" stroke-width="2" stroke-linecap="round" stroke-linejoin="round"/>
</svg>
