<?xml version="1.0" encoding="UTF-8"?>
<svg version="1.1" xmlns="http://www.w3.org/2000/svg" width="669" height="669">
<path d="M0 0 C3.06815477 0.62717527 6.14079709 1.05404121 9.24536133 1.45898438 C9.24536133 2.11898437 9.24536133 2.77898437 9.24536133 3.45898438 C9.76098633 3.25273438 10.27661133 3.04648438 10.80786133 2.83398438 C14.26734825 2.30175562 16.99135244 3.39301595 20.24536133 4.45898438 C22.47368234 5.14922039 24.70291966 5.83650229 26.93286133 6.52148438 C28.02985352 6.86308594 29.1268457 7.2046875 30.25708008 7.55664062 C32.57894426 8.25775255 34.88596163 8.90214308 37.24536133 9.45898438 C37.24536133 10.11898437 37.24536133 10.77898437 37.24536133 11.45898438 C37.91438477 11.38808594 38.5834082 11.3171875 39.27270508 11.24414062 C43.23503952 11.53051171 46.3158947 13.14191707 49.80786133 14.89648438 C55.34977464 17.64585569 55.34977464 17.64585569 61.24536133 19.45898438 C61.24536133 20.11898437 61.24536133 20.77898437 61.24536133 21.45898438 C62.06327148 21.69681641 62.06327148 21.69681641 62.89770508 21.93945312 C68.83948386 23.77784964 73.90350646 26.3093058 79.24536133 29.45898438 C80.31270508 30.05582031 81.38004883 30.65265625 82.47973633 31.26757812 C83.57801758 31.88761719 84.67629883 32.50765625 85.80786133 33.14648438 C86.84040039 33.72785156 87.87293945 34.30921875 88.93676758 34.90820312 C90.07952148 35.67583984 90.07952148 35.67583984 91.24536133 36.45898438 C91.24536133 37.11898437 91.24536133 37.77898437 91.24536133 38.45898438 C91.79708008 38.55308594 92.34879883 38.6471875 92.91723633 38.74414062 C95.86941698 39.65059878 97.97257477 41.12241956 100.49536133 42.89648438 C101.38739258 43.51394531 102.27942383 44.13140625 103.19848633 44.76757812 C104.21168945 45.60482422 104.21168945 45.60482422 105.24536133 46.45898438 C105.24536133 47.11898437 105.24536133 47.77898437 105.24536133 48.45898438 C106.89536133 49.11898437 108.54536133 49.77898437 110.24536133 50.45898438 C110.24536133 51.11898437 110.24536133 51.77898437 110.24536133 52.45898438 C110.83542969 52.72759277 111.42549805 52.99620117 112.03344727 53.27294922 C114.25561211 54.46448088 115.80786296 55.71063255 117.63598633 57.43554688 C118.57063721 58.31182739 118.57063721 58.31182739 119.52416992 59.20581055 C120.17466309 59.82560791 120.82515625 60.44540527 121.49536133 61.08398438 C122.16776855 61.71989502 122.84017578 62.35580566 123.53295898 63.01098633 C125.44228289 64.82163179 127.34452866 66.63943382 129.24536133 68.45898438 C130.05231445 69.22339844 130.85926758 69.9878125 131.69067383 70.77539062 C137.86788624 76.76503586 144.72153473 83.5211013 148.24536133 91.45898438 C148.90536133 91.45898438 149.56536133 91.45898438 150.24536133 91.45898438 C154.24536133 96.87074908 154.24536133 96.87074908 154.24536133 99.45898438 C154.90536133 99.45898438 155.56536133 99.45898438 156.24536133 99.45898438 C156.24536133 100.44898438 156.24536133 101.43898438 156.24536133 102.45898438 C157.23536133 102.78898437 158.22536133 103.11898437 159.24536133 103.45898438 C160.67504883 105.71679688 160.67504883 105.71679688 162.12036133 108.58398438 C163.87329254 111.95935564 165.59245035 115.08599569 167.93286133 118.08398438 C170.40449143 121.34780361 171.48618854 124.71719329 172.56958008 128.63867188 C173.08561404 130.66363698 173.08561404 130.66363698 175.24536133 131.45898438 C176.12366858 133.13443518 176.9248769 134.85077388 177.68286133 136.58398438 C178.3402832 138.07865234 178.3402832 138.07865234 179.01098633 139.60351562 C179.41833008 140.54582031 179.82567383 141.488125 180.24536133 142.45898438 C180.54958008 143.14347656 180.85379883 143.82796875 181.16723633 144.53320312 C185.24536133 153.79221142 185.24536133 153.79221142 185.24536133 158.45898438 C185.90536133 158.78898438 186.56536133 159.11898437 187.24536133 159.45898438 C188.02661133 161.53320312 188.02661133 161.53320312 188.74536133 164.14648438 C189.53634792 166.95667292 190.33276339 169.70576668 191.30786133 172.45898438 C192.37498652 175.87378499 193.04241672 179.28210104 193.68286133 182.79882812 C194.21701248 185.5347096 194.21701248 185.5347096 195.17895508 188.43164062 C196.84759083 194.14196271 197.47602588 200.08236741 198.30786133 205.95898438 C198.48124023 207.15652344 198.65461914 208.3540625 198.83325195 209.58789062 C199.16696668 211.89704309 199.49624223 214.20684252 199.82055664 216.51733398 C200.13012681 218.66101848 200.48196341 220.79872485 200.85864258 222.93164062 C201.49570853 228.74245431 201.38856522 234.55606984 201.37036133 240.39648438 C201.37422852 241.63333984 201.3780957 242.87019531 201.38208008 244.14453125 C201.37543488 250.36111237 201.17748815 256.31570558 200.24536133 262.45898438 C200.01361972 264.29052924 199.78610682 266.12261184 199.56176758 267.95507812 C199.31075462 269.93558354 199.05944724 271.91605166 198.80786133 273.89648438 C198.68604492 274.88197266 198.56422852 275.86746094 198.4387207 276.8828125 C197.75428615 282.23416865 196.89899003 287.45657564 195.62792969 292.70141602 C195.17446505 294.48490384 195.17446505 294.48490384 195.24536133 296.45898438 C194.58536133 296.45898438 193.92536133 296.45898438 193.24536133 296.45898438 C193.45161133 296.97460938 193.65786133 297.49023438 193.87036133 298.02148438 C194.4026669 301.48147059 193.30964865 304.20417977 192.24536133 307.45898438 C191.57724519 309.64604211 190.91070322 311.83358107 190.24536133 314.02148438 C188.96534314 318.18654356 187.63630845 322.32961011 186.24536133 326.45898438 C185.58536133 326.45898438 184.92536133 326.45898438 184.24536133 326.45898438 C184.57536133 327.44898438 184.90536133 328.43898438 185.24536133 329.45898438 C184.58536133 329.45898438 183.92536133 329.45898438 183.24536133 329.45898438 C183.32786133 330.11898438 183.41036133 330.77898437 183.49536133 331.45898438 C183.14444322 335.6700017 181.20189492 338.79763496 179.24536133 342.45898438 C178.399088 344.15955258 177.5531376 345.86029058 176.71313477 347.56396484 C168.07876101 365.04228453 168.07876101 365.04228453 165.24536133 366.45898438 C164.53825455 368.1089002 163.87973476 369.77976058 163.24536133 371.45898438 C162.2605411 373.46650253 161.26383619 375.46832897 160.24536133 377.45898438 C159.58536133 377.45898438 158.92536133 377.45898438 158.24536133 377.45898438 C157.99786133 378.36648438 157.75036133 379.27398437 157.49536133 380.20898438 C156.17327188 383.64641694 154.8828598 384.9813343 152.24536133 387.45898438 C151.2396789 389.12222839 150.23871334 390.7883469 149.24536133 392.45898438 C148.58536133 392.78898437 147.92536133 393.11898438 147.24536133 393.45898438 C146.91536133 394.44898438 146.58536133 395.43898438 146.24536133 396.45898438 C145.58536133 396.45898438 144.92536133 396.45898438 144.24536133 396.45898438 C143.84317383 397.32523437 143.84317383 397.32523437 143.43286133 398.20898438 C142.21606944 400.5144848 140.94202254 402.4795463 139.24536133 404.45898438 C138.58536133 404.45898438 137.92536133 404.45898438 137.24536133 404.45898438 C136.90504883 405.32523437 136.90504883 405.32523437 136.55786133 406.20898438 C134.89809787 409.05429315 132.82469465 410.39551771 130.24536133 412.45898438 C129.12112423 413.71209743 128.01864288 414.9849076 126.93286133 416.27148438 C118.20196613 426.47344944 118.20196613 426.47344944 112.24536133 428.45898438 C111.91536133 429.44898438 111.58536133 430.43898438 111.24536133 431.45898438 C109.68676758 432.84570312 109.68676758 432.84570312 107.80786133 434.14648438 C107.19040039 434.58347656 106.57293945 435.02046875 105.93676758 435.47070312 C104.24536133 436.45898438 104.24536133 436.45898438 102.24536133 436.45898438 C102.24536133 437.11898438 102.24536133 437.77898437 102.24536133 438.45898438 C100.61211822 439.51268961 98.93292266 440.49466361 97.24536133 441.45898438 C94.89756504 443.04172291 92.56333709 444.64270196 90.23364258 446.25195312 C88.24536133 447.45898438 88.24536133 447.45898438 86.24536133 447.45898438 C85.91536133 448.11898438 85.58536133 448.77898437 85.24536133 449.45898438 C83.50876927 450.67603402 81.73099621 451.83485237 79.93286133 452.95898438 C78.96735352 453.56742188 78.0018457 454.17585938 77.00708008 454.80273438 C74.77646292 456.14047366 72.59130023 457.34581337 70.24536133 458.45898438 C69.35719727 458.884375 68.4690332 459.30976562 67.55395508 459.74804688 C66.13276367 460.40933594 66.13276367 460.40933594 64.68286133 461.08398438 C63.73282227 461.53 62.7827832 461.97601562 61.80395508 462.43554688 C59.24536133 463.45898438 59.24536133 463.45898438 56.24536133 463.45898438 C55.91536133 464.11898438 55.58536133 464.77898437 55.24536133 465.45898438 C42.7236222 471.45898438 42.7236222 471.45898438 36.24536133 471.45898438 C35.91536133 472.11898438 35.58536133 472.77898437 35.24536133 473.45898438 C32.30786133 474.64648438 32.30786133 474.64648438 29.24536133 475.45898438 C28.58536133 475.12898438 27.92536133 474.79898437 27.24536133 474.45898438 C27.24536133 475.11898438 27.24536133 475.77898437 27.24536133 476.45898438 C21.49536133 477.58398438 21.49536133 477.58398438 19.24536133 476.45898438 C18.91536133 477.11898438 18.58536133 477.77898437 18.24536133 478.45898438 C15.97494339 479.06578405 13.67689364 479.57102663 11.37036133 480.02148438 C6.25095175 481.02521563 6.25095175 481.02521563 1.24536133 482.45898438 C-1.29311329 482.75959321 -3.83239033 482.96546368 -6.37963867 483.17773438 C-8.89988347 483.39491655 -8.89988347 483.39491655 -11.75463867 484.45898438 C-13.42130534 484.45898438 -15.08797201 484.45898438 -16.75463867 484.45898438 C-17.37338867 484.62398437 -17.99213867 484.78898437 -18.62963867 484.95898438 C-21.66902211 485.67413342 -24.63586565 485.45898438 -27.75463867 485.45898438 C-28.90577148 485.62140625 -30.0569043 485.78382813 -31.24291992 485.95117188 C-36.71726275 486.66725185 -42.17966269 486.6047731 -47.69213867 486.58398438 C-48.7446582 486.58785156 -49.79717773 486.59171875 -50.8815918 486.59570312 C-51.8799707 486.59441406 -52.87834961 486.593125 -53.90698242 486.59179688 C-54.81440186 486.59066895 -55.72182129 486.58954102 -56.65673828 486.58837891 C-58.75463867 486.45898438 -58.75463867 486.45898438 -59.75463867 485.45898438 C-61.42066271 485.41270593 -63.08840228 485.42111537 -64.75463867 485.45898438 C-66.42087506 485.49685338 -68.08861464 485.50526282 -69.75463867 485.45898438 C-70.08463867 485.12898438 -70.41463867 484.79898437 -70.75463867 484.45898438 C-72.68704264 484.45898438 -74.62000991 484.46250716 -76.55151367 484.52148438 C-79.05369194 484.45050059 -81.31205893 483.99840323 -83.75463867 483.45898438 C-84.83551758 483.24628906 -84.83551758 483.24628906 -85.93823242 483.02929688 C-93.22826375 481.58897873 -100.49153716 480.028819 -107.75463867 478.45898438 C-107.75463867 477.79898437 -107.75463867 477.13898438 -107.75463867 476.45898438 C-108.74463867 476.78898437 -109.73463867 477.11898438 -110.75463867 477.45898438 C-114.37963867 476.64648438 -114.37963867 476.64648438 -117.75463867 475.45898438 C-118.08463867 474.79898437 -118.41463867 474.13898438 -118.75463867 473.45898438 C-119.74463867 473.78898437 -120.73463867 474.11898438 -121.75463867 474.45898438 C-121.75463867 473.79898437 -121.75463867 473.13898438 -121.75463867 472.45898438 C-122.29991211 472.34941406 -122.84518555 472.23984375 -123.40698242 472.12695312 C-129.00998933 470.94888501 -134.36007738 469.37194937 -139.75463867 467.45898438 C-139.75463867 466.79898437 -139.75463867 466.13898438 -139.75463867 465.45898438 C-141.40463867 465.45898438 -143.05463867 465.45898438 -144.75463867 465.45898438 C-144.75463867 464.79898437 -144.75463867 464.13898438 -144.75463867 463.45898438 C-145.43526367 463.35585938 -146.11588867 463.25273438 -146.81713867 463.14648438 C-150.38379856 462.31173419 -153.41686061 460.96425683 -156.75463867 459.45898438 C-156.75463867 458.79898437 -156.75463867 458.13898438 -156.75463867 457.45898438 C-158.73463867 457.12898438 -160.71463867 456.79898437 -162.75463867 456.45898438 C-162.75463867 455.79898437 -162.75463867 455.13898438 -162.75463867 454.45898438 C-163.62088867 454.21148438 -164.48713867 453.96398437 -165.37963867 453.70898438 C-168.25337325 452.64463824 -170.4274543 451.48931959 -172.91088867 449.73242188 C-176.27794399 447.40687095 -179.79064962 445.30107439 -183.26635742 443.14257812 C-185.75463867 441.45898438 -185.75463867 441.45898438 -187.39916992 439.80664062 C-188.82617239 438.18812498 -188.82617239 438.18812498 -191.75463867 437.45898438 C-191.75463867 436.79898437 -191.75463867 436.13898438 -191.75463867 435.45898438 C-192.51776367 435.19085937 -193.28088867 434.92273438 -194.06713867 434.64648438 C-196.70888341 433.47920182 -197.84156336 432.53841406 -199.75463867 430.45898438 C-200.83745117 429.68554688 -200.83745117 429.68554688 -201.94213867 428.89648438 C-202.54026367 428.42210937 -203.13838867 427.94773437 -203.75463867 427.45898438 C-203.75463867 426.79898437 -203.75463867 426.13898438 -203.75463867 425.45898438 C-204.31151367 425.21148437 -204.86838867 424.96398437 -205.44213867 424.70898438 C-208.17874781 423.22973619 -210.43114737 421.52430998 -212.75463867 419.45898438 C-212.75463867 418.79898437 -212.75463867 418.13898438 -212.75463867 417.45898438 C-213.58995117 417.11867188 -213.58995117 417.11867188 -214.44213867 416.77148438 C-217.41623455 415.08348401 -219.47472732 412.99221921 -221.75463867 410.45898438 C-221.75463867 409.79898437 -221.75463867 409.13898438 -221.75463867 408.45898438 C-222.74463867 408.12898438 -223.73463867 407.79898437 -224.75463867 407.45898438 C-228.75463867 403.00184152 -228.75463867 403.00184152 -228.75463867 400.45898438 C-229.74463867 400.12898438 -230.73463867 399.79898437 -231.75463867 399.45898438 C-232.79253449 397.81564933 -233.79031791 396.14654571 -234.75463867 394.45898438 C-235.73314062 393.43793886 -236.73444294 392.43837228 -237.75463867 391.45898438 C-241.75463867 386.77327009 -241.75463867 386.77327009 -241.75463867 384.45898438 C-242.41463867 384.12898438 -243.07463867 383.79898437 -243.75463867 383.45898438 C-244.96741332 381.67700654 -246.12706944 379.85856221 -247.25463867 378.02148438 C-249.70442818 374.00317832 -249.70442818 374.00317832 -252.75463867 370.45898438 C-252.75463867 369.46898437 -252.75463867 368.47898437 -252.75463867 367.45898438 C-253.41463867 367.45898438 -254.07463867 367.45898438 -254.75463867 367.45898438 C-255.426188 366.1698495 -256.09172726 364.87758234 -256.75463867 363.58398438 C-257.12588867 362.8646875 -257.49713867 362.14539063 -257.87963867 361.40429688 C-258.75463867 359.45898438 -258.75463867 359.45898438 -258.75463867 357.45898438 C-259.41463867 357.12898438 -260.07463867 356.79898437 -260.75463867 356.45898438 C-262.0431145 354.01612748 -263.23291571 351.59185817 -264.37963867 349.08398438 C-264.70448242 348.39820313 -265.02932617 347.71242188 -265.36401367 347.00585938 C-266.75711225 343.99723471 -267.75463867 341.81282868 -267.75463867 338.45898438 C-268.41463867 338.12898438 -269.07463867 337.79898437 -269.75463867 337.45898438 C-269.75463867 336.13898438 -269.75463867 334.81898438 -269.75463867 333.45898438 C-270.41463867 333.12898438 -271.07463867 332.79898437 -271.75463867 332.45898438 C-272.5925293 330.51293945 -272.5925293 330.51293945 -273.41088867 327.97851562 C-273.71124023 327.06134766 -274.0115918 326.14417969 -274.32104492 325.19921875 C-274.62913086 324.23306641 -274.9372168 323.26691406 -275.25463867 322.27148438 C-275.56272461 321.32466797 -275.87081055 320.37785156 -276.18823242 319.40234375 C-276.78427283 317.56945555 -277.37560253 315.73502718 -277.96166992 313.89892578 C-278.6148265 311.8891823 -279.31863016 309.89597137 -280.03588867 307.90820312 C-280.75463867 305.45898438 -280.75463867 305.45898438 -279.75463867 303.45898438 C-280.41463867 303.12898438 -281.07463867 302.79898437 -281.75463867 302.45898438 C-281.42463867 301.46898437 -281.09463867 300.47898437 -280.75463867 299.45898438 C-281.41463867 299.45898438 -282.07463867 299.45898438 -282.75463867 299.45898438 C-283.77145706 294.64143708 -284.7592359 289.85413132 -285.31713867 284.95898438 C-285.53795891 281.61499381 -285.53795891 281.61499381 -286.75463867 279.45898438 C-286.75463867 277.79231771 -286.75463867 276.12565104 -286.75463867 274.45898438 C-286.90803711 273.85183594 -287.06143555 273.2446875 -287.21948242 272.61914062 C-288.81211003 266.1905051 -288.82595924 259.37293518 -288.71948242 252.78320312 C-288.77354993 249.20873995 -289.20789252 245.68186895 -289.63354492 242.13476562 C-289.77079602 239.10195911 -289.2629785 236.44877567 -288.75463867 233.45898438 C-288.71216593 231.14687445 -288.71376108 228.83362305 -288.75463867 226.52148438 C-288.78485248 221.69734693 -288.61953608 217.21592014 -287.75463867 212.45898438 C-287.46146185 210.48004085 -287.17000893 208.50084166 -286.87963867 206.52148438 C-285.3123489 196.40427801 -283.69262334 186.27925597 -280.75463867 176.45898438 C-280.5200293 175.65074219 -280.28541992 174.8425 -280.04370117 174.00976562 C-276.53991759 162.1999539 -272.57731035 150.89851875 -267.00463867 139.89648438 C-266.29749752 138.4928939 -265.59046855 137.08924691 -264.88354492 135.68554688 C-264.52921387 134.98333008 -264.17488281 134.28111328 -263.80981445 133.55761719 C-262.79337336 131.53602357 -261.78580129 129.5103081 -260.78198242 127.48242188 C-260.31646973 126.54378296 -260.31646973 126.54378296 -259.84155273 125.58618164 C-258.99275648 123.87361308 -258.14514432 122.16045779 -257.29760742 120.44726562 C-253.31851532 112.7409227 -253.31851532 112.7409227 -250.75463867 111.45898438 C-250.75463867 110.46898437 -250.75463867 109.47898437 -250.75463867 108.45898438 C-250.09463867 108.45898438 -249.43463867 108.45898438 -248.75463867 108.45898438 C-248.44526367 107.67523438 -248.13588867 106.89148438 -247.81713867 106.08398438 C-246.75463867 103.45898438 -246.75463867 103.45898438 -245.75463867 101.45898438 C-245.09463867 101.45898438 -244.43463867 101.45898438 -243.75463867 101.45898438 C-243.75463867 100.46898437 -243.75463867 99.47898437 -243.75463867 98.45898438 C-243.09463867 98.45898438 -242.43463867 98.45898438 -241.75463867 98.45898438 C-241.48651367 97.90210938 -241.21838867 97.34523438 -240.94213867 96.77148438 C-239.64564371 94.24673103 -238.32987544 91.82183953 -236.75463867 89.45898438 C-236.09463867 89.45898438 -235.43463867 89.45898438 -234.75463867 89.45898438 C-234.52518555 88.91113281 -234.29573242 88.36328125 -234.05932617 87.79882812 C-232.37859662 84.7845856 -230.23510549 82.54120481 -227.87963867 80.02148438 C-225.35499872 77.31220657 -222.89181664 74.6315073 -220.58666992 71.73242188 C-218.75463867 69.45898438 -218.75463867 69.45898438 -216.31713867 67.52148438 C-214.18147311 65.80253405 -212.74879747 64.32094998 -211.06713867 62.20898438 C-209.92245117 60.84773438 -209.92245117 60.84773438 -208.75463867 59.45898438 C-208.09463867 59.45898438 -207.43463867 59.45898438 -206.75463867 59.45898438 C-206.38725586 58.55599609 -206.38725586 58.55599609 -206.01245117 57.63476562 C-204.52248848 55.0574078 -203.16251264 54.1776817 -200.62963867 52.64648438 C-197.33593049 50.56011617 -194.40149887 48.38196296 -191.50463867 45.77148438 C-184.49385327 39.45898438 -184.49385327 39.45898438 -180.75463867 39.45898438 C-180.25963867 38.46898438 -180.25963867 38.46898438 -179.75463867 37.45898438 C-172.07917275 31.65430399 -163.42953385 26.59927526 -154.75463867 22.45898438 C-153.88838867 22.00523438 -153.02213867 21.55148438 -152.12963867 21.08398438 C-138.37002329 14.45898438 -138.37002329 14.45898438 -133.75463867 14.45898438 C-133.42463867 13.79898438 -133.09463867 13.13898438 -132.75463867 12.45898438 C-130.78588867 11.71289062 -130.78588867 11.71289062 -128.25463867 11.02148438 C-124.87398208 10.06451331 -121.52201126 9.08068749 -118.19213867 7.95898438 C-117.46124023 7.7140625 -116.7303418 7.46914062 -115.97729492 7.21679688 C-114.46113767 6.69986452 -112.94820491 6.17340075 -111.43823242 5.63867188 C-106.85481618 4.04106824 -102.58812815 3.08554783 -97.75463867 2.45898438 C-96.53776367 2.08773437 -95.32088867 1.71648437 -94.06713867 1.33398438 C-90.96518176 0.51459953 -89.66322337 0.29555049 -86.75463867 1.45898438 C-86.75463867 0.79898438 -86.75463867 0.13898438 -86.75463867 -0.54101562 C-58.09186901 -4.28180056 -28.49216949 -6.05389742 0 0 Z M-77.75463867 5.45898438 C-79.42130534 5.45898438 -81.08797201 5.45898438 -82.75463867 5.45898438 C-83.41463867 5.78898437 -84.07463867 6.11898437 -84.75463867 6.45898438 C-86.07463867 6.45898438 -87.39463867 6.45898438 -88.75463867 6.45898438 C-88.75463867 7.11898437 -88.75463867 7.77898437 -88.75463867 8.45898438 C-89.47651367 8.25273438 -90.19838867 8.04648438 -90.94213867 7.83398438 C-94.35487511 7.37895285 -95.56096902 8.17981095 -98.75463867 9.45898438 C-101.94454052 10.32629343 -105.1635255 11.07051537 -108.37963867 11.83398438 C-115.7018938 13.62246623 -122.76907601 15.59479436 -129.75463867 18.45898438 C-130.71241211 18.83796875 -131.67018555 19.21695313 -132.65698242 19.60742188 C-147.57079144 25.63436657 -163.72054751 32.95557253 -176.75463867 42.45898438 C-176.75463867 43.11898437 -176.75463867 43.77898437 -176.75463867 44.45898438 C-177.74463867 44.45898438 -178.73463867 44.45898438 -179.75463867 44.45898438 C-181.10964786 45.77028359 -182.44135211 47.10590125 -183.75463867 48.45898438 C-185.07211191 49.15647021 -186.4037806 49.82858394 -187.75463867 50.45898438 C-188.74463867 51.44898438 -188.74463867 51.44898438 -189.75463867 52.45898438 C-190.74463867 53.11898437 -191.73463867 53.77898437 -192.75463867 54.45898438 C-192.75463867 55.11898437 -192.75463867 55.77898437 -192.75463867 56.45898438 C-193.33213867 56.70648438 -193.90963867 56.95398438 -194.50463867 57.20898438 C-196.87626 58.39173493 -196.87626 58.39173493 -198.81713867 60.52148438 C-200.75463867 62.45898438 -200.75463867 62.45898438 -203.75463867 63.45898438 C-205.09887207 65.11687223 -206.4308235 66.78474755 -207.75463867 68.45898438 C-209.42130534 69.79231771 -211.08797201 71.12565104 -212.75463867 72.45898438 C-213.41463867 73.28398437 -214.07463867 74.10898438 -214.75463867 74.95898438 C-216.75463867 77.45898438 -216.75463867 77.45898438 -219.06713867 79.27148438 C-222.7337644 82.25594718 -225.91340362 85.67612964 -228.75463867 89.45898438 C-228.75463867 90.11898437 -228.75463867 90.77898437 -228.75463867 91.45898438 C-230.08797201 92.79231771 -231.42130534 94.12565104 -232.75463867 95.45898438 C-232.75463867 96.11898437 -232.75463867 96.77898437 -232.75463867 97.45898438 C-233.41463867 97.45898438 -234.07463867 97.45898438 -234.75463867 97.45898438 C-234.75463867 98.11898437 -234.75463867 98.77898437 -234.75463867 99.45898438 C-235.74463867 99.95398438 -235.74463867 99.95398438 -236.75463867 100.45898438 C-239.70027755 104.10666568 -239.70027755 104.10666568 -240.75463867 108.45898438 C-241.41463867 108.45898438 -242.07463867 108.45898438 -242.75463867 108.45898438 C-245.2098389 112.70836939 -247.62220751 116.98085005 -250.00463867 121.27148438 C-250.52541992 122.20605469 -251.04620117 123.140625 -251.58276367 124.10351562 C-252.90311567 126.31894331 -252.90311567 126.31894331 -252.75463867 128.45898438 C-253.74463867 128.95398438 -253.74463867 128.95398438 -254.75463867 129.45898438 C-258.04987969 134.68867862 -259.95976573 140.58485474 -261.75463867 146.45898438 C-262.41463867 146.45898438 -263.07463867 146.45898438 -263.75463867 146.45898438 C-264.02276367 147.44898438 -264.29088867 148.43898437 -264.56713867 149.45898438 C-265.97997186 154.38908062 -267.78474365 159.14471748 -269.76635742 163.87304688 C-272.00140069 169.2404742 -274.11465143 174.63635537 -274.75463867 180.45898438 C-274.42463867 181.11898437 -274.09463867 181.77898437 -273.75463867 182.45898438 C-274.41463867 182.45898438 -275.07463867 182.45898438 -275.75463867 182.45898438 C-275.42463867 183.77898437 -275.09463867 185.09898437 -274.75463867 186.45898438 C-275.41463867 186.45898438 -276.07463867 186.45898438 -276.75463867 186.45898438 C-276.87709961 187.33554687 -276.99956055 188.21210938 -277.12573242 189.11523438 C-277.63433322 192.68171899 -278.17938365 196.24209012 -278.72729492 199.80273438 C-278.90454102 200.96675781 -279.08178711 202.13078125 -279.2644043 203.33007812 C-279.63298291 205.74993346 -280.00538152 208.16921002 -280.3815918 210.58789062 C-281.24344174 216.2893595 -281.87598286 221.69918029 -281.75463867 227.45898438 C-282.24963867 228.44898438 -282.24963867 228.44898438 -282.75463867 229.45898438 C-282.82414409 230.99922434 -282.83916225 232.54233425 -282.81713867 234.08398438 C-282.80811523 234.90125 -282.7990918 235.71851563 -282.78979492 236.56054688 C-282.77819336 237.18703125 -282.7665918 237.81351563 -282.75463867 238.45898438 C-272.08037108 238.35165182 -261.40617347 238.23905336 -250.73203373 238.11964512 C-245.77613156 238.06437235 -240.82022353 238.01094553 -235.86425781 237.96166992 C-231.08559797 237.91409041 -226.30701225 237.8617502 -221.52844048 237.80604362 C-219.70112378 237.78559091 -217.87378674 237.76688276 -216.0464344 237.74991035 C-213.49605033 237.72593063 -210.9458077 237.69586773 -208.39550781 237.66430664 C-207.25075989 237.65567345 -207.25075989 237.65567345 -206.08288574 237.64686584 C-202.62772017 237.90631371 -202.62772017 237.90631371 -199.75463867 236.45898438 C-199.75463867 234.58917049 -199.75844347 232.71927509 -199.78198242 230.84960938 C-199.72286457 225.68102019 -199.18352667 220.51764676 -198.12963867 215.45898438 C-197.53428943 213.39602745 -197.53428943 213.39602745 -198.75463867 211.45898438 C-198.09463867 211.45898438 -197.43463867 211.45898438 -196.75463867 211.45898438 C-196.79588867 210.73710937 -196.83713867 210.01523437 -196.87963867 209.27148438 C-196.75463867 206.45898438 -196.75463867 206.45898438 -195.84448242 204.19335938 C-194.62306039 201.12885966 -193.93548577 198.11047305 -193.19213867 194.89648438 C-191.54492164 188.33913399 -189.14048075 182.24915579 -186.37963867 176.08398438 C-186.01668701 175.26470459 -185.65373535 174.4454248 -185.27978516 173.60131836 C-181.53995072 165.46999299 -176.53399313 158.41580442 -171.14135742 151.31054688 C-168.54591738 147.84508609 -166.13559742 144.60186063 -164.75463867 140.45898438 C-163.42864245 139.77784105 -162.0942559 139.11293231 -160.75463867 138.45898438 C-159.03153968 136.72543525 -159.03153968 136.72543525 -157.44213867 134.70898438 C-154.63097716 131.37790912 -151.70722982 128.53481221 -148.33276367 125.78320312 C-146.70790866 124.46266833 -146.70790866 124.46266833 -145.17651367 122.85351562 C-143.75463867 121.45898438 -143.75463867 121.45898438 -141.75463867 120.45898438 C-141.75463867 119.79898438 -141.75463867 119.13898438 -141.75463867 118.45898438 C-141.21838867 118.21148437 -140.68213867 117.96398437 -140.12963867 117.70898438 C-137.17224048 116.15245901 -134.45739817 114.42462764 -131.75463867 112.45898438 C-131.75463867 111.79898438 -131.75463867 111.13898438 -131.75463867 110.45898438 C-131.09463867 110.21148437 -130.43463867 109.96398437 -129.75463867 109.70898438 C-125.9910296 108.14081393 -122.38349627 106.31393392 -118.75463867 104.45898438 C-118.75463867 103.79898438 -118.75463867 103.13898438 -118.75463867 102.45898438 C-118.05725586 102.35328125 -117.35987305 102.24757813 -116.64135742 102.13867188 C-113.331226 101.35929046 -110.62022088 100.07891622 -107.56713867 98.58398438 C-102.04256054 95.97463561 -96.64907269 94.0189678 -90.75463867 92.45898438 C-89.57901367 92.10835938 -88.40338867 91.75773437 -87.19213867 91.39648438 C-83.73616563 90.45394627 -80.2738501 89.66497141 -76.77026367 88.92382812 C-74.56813625 88.4495669 -74.56813625 88.4495669 -71.75463867 87.45898438 C-61.52022659 85.80233494 -51.17060552 85.37175404 -40.81713867 85.33398438 C-40.13216309 85.32939209 -39.4471875 85.3247998 -38.74145508 85.32006836 C-33.98613101 85.33447843 -29.4550485 85.81845722 -24.75463867 86.45898438 C-23.06772587 86.61145999 -21.38028948 86.75838857 -19.69213867 86.89648438 C-15.51100831 87.30888722 -11.77836746 88.21024096 -7.75463867 89.45898438 C-5.81819212 89.92174827 -3.88057443 90.37962491 -1.94213867 90.83398438 C3.7077537 92.23768434 8.90048421 94.1800337 14.24536133 96.45898438 C15.16833008 96.81734375 16.09129883 97.17570312 17.04223633 97.54492188 C26.29154275 101.1908125 35.93927506 105.61849685 43.47192383 112.20898438 C46.03842941 114.77399236 46.03842941 114.77399236 49.24536133 114.45898438 C49.24536133 115.11898437 49.24536133 115.77898437 49.24536133 116.45898438 C50.42098633 116.83023438 50.42098633 116.83023438 51.62036133 117.20898438 C54.24536133 118.45898438 54.24536133 118.45898438 55.08911133 120.27929688 C56.64763449 123.21732365 58.72370513 124.5860907 61.37036133 126.58398438 C66.27995885 130.46134063 69.99979126 134.55183357 73.68676758 139.58789062 C74.45827148 140.51408203 74.45827148 140.51408203 75.24536133 141.45898438 C75.90536133 141.45898438 76.56536133 141.45898438 77.24536133 141.45898438 C77.49286133 141.99523437 77.74036133 142.53148437 77.99536133 143.08398438 C79.99219737 146.87797286 82.35589397 150.32837253 85.00317383 153.69335938 C91.19402928 161.70505467 95.24070894 170.2292141 99.24536133 179.45898438 C99.67510254 180.42674805 99.67510254 180.42674805 100.11352539 181.4140625 C105.55711655 193.74087223 109.31675275 206.65423619 110.06958008 220.16210938 C110.1997185 222.50741135 110.1997185 222.50741135 110.76489258 224.95898438 C111.24566166 227.46054708 111.31356282 229.66847898 111.24536133 232.20898438 C111.20784689 233.62515425 111.19855494 235.04309116 111.24536133 236.45898438 C112.97677626 238.19039931 115.20286177 237.57876016 117.51014709 237.58340454 C118.64086891 237.57801163 118.64086891 237.57801163 119.79443359 237.57250977 C120.58461884 237.57265579 121.37480408 237.57280182 122.18893433 237.57295227 C124.81323955 237.57225294 127.43747469 237.56445965 130.06176758 237.55664062 C131.87637798 237.55477652 133.69098889 237.55335258 135.50559998 237.55235291 C140.29126363 237.54852717 145.07689713 237.53869641 149.86254883 237.52764893 C154.74210197 237.517436 159.62165996 237.51285554 164.5012207 237.5078125 C174.08261419 237.49707419 183.66398526 237.47999711 193.24536133 237.45898438 C193.89507616 233.16704582 194.34603274 229.31722344 193.94067383 224.99023438 C193.85172852 224.00667969 193.7627832 223.023125 193.67114258 222.00976562 C193.52225586 220.49962891 193.52225586 220.49962891 193.37036133 218.95898438 C193.27883789 217.95222656 193.18731445 216.94546875 193.09301758 215.90820312 C192.39975239 206.60239513 192.39975239 206.60239513 190.24536133 197.58398438 C189.39297665 194.92028227 189.04100934 192.89192114 188.80786133 190.14648438 C188.42691088 186.24012804 187.52294971 182.92079023 186.19458008 179.24023438 C185.17668022 176.2577459 184.31137105 173.25240811 183.45141602 170.22143555 C181.72896672 164.16607225 180.00138382 158.29092788 177.26098633 152.60351562 C176.05437632 150.05571218 175.03632395 147.45374031 173.99536133 144.83398438 C171.43261217 138.62943378 168.32253099 132.79548681 165.11645508 126.90820312 C163.06782469 123.13170911 161.13489282 119.31677783 159.24536133 115.45898438 C158.58536133 115.45898438 157.92536133 115.45898438 157.24536133 115.45898438 C157.01719727 114.605625 156.7890332 113.75226563 156.55395508 112.87304688 C155.0275336 108.89068159 152.96735897 106.11902042 150.30786133 102.83398438 C149.42367849 101.71685089 148.53956229 100.59966467 147.65551758 99.48242188 C146.86016602 98.4846875 146.06481445 97.48695313 145.24536133 96.45898438 C144.70524414 95.73839844 144.16512695 95.0178125 143.60864258 94.27539062 C140.55900601 90.21212127 137.21106145 86.4246845 133.62036133 82.83398438 C131.24536133 80.45898438 131.24536133 80.45898438 129.30786133 77.95898438 C126.90345504 75.04455251 124.14834523 72.86784336 121.24536133 70.45898438 C120.23962354 69.12997373 119.23740725 67.79824636 118.24536133 66.45898438 C117.58536133 66.45898438 116.92536133 66.45898438 116.24536133 66.45898438 C115.99786133 65.81960937 115.75036133 65.18023437 115.49536133 64.52148438 C114.44847839 62.2600343 114.44847839 62.2600343 112.18286133 61.89648438 C111.54348633 61.75210938 110.90411133 61.60773438 110.24536133 61.45898438 C109.91536133 60.46898437 109.58536133 59.47898438 109.24536133 58.45898438 C107.39686625 56.73378437 107.39686625 56.73378437 105.12036133 55.08398438 C104.31211914 54.47683594 103.50387695 53.8696875 102.67114258 53.24414062 C101.87063477 52.65503906 101.07012695 52.0659375 100.24536133 51.45898438 C99.21475586 50.68361328 99.21475586 50.68361328 98.16333008 49.89257812 C95.03529929 47.32277955 95.03529929 47.32277955 91.24536133 46.45898438 C91.24536133 45.79898438 91.24536133 45.13898438 91.24536133 44.45898438 C80.08207128 35.80374628 66.23635413 29.03695835 53.37036133 23.33398438 C52.38096558 22.89119141 52.38096558 22.89119141 51.37158203 22.43945312 C48.03112562 21.00776659 45.9531635 20.45898438 42.24536133 20.45898438 C41.91536133 19.79898438 41.58536133 19.13898438 41.24536133 18.45898438 C30.76570942 12.80329922 17.75551124 10.95285019 6.24536133 8.45898438 C5.2012207 8.15541016 5.2012207 8.15541016 4.13598633 7.84570312 C2.16791634 7.2404645 2.16791634 7.2404645 0.24536133 8.45898438 C0.24536133 7.79898438 0.24536133 7.13898438 0.24536133 6.45898438 C-1.73463867 6.78898437 -3.71463867 7.11898437 -5.75463867 7.45898438 C-5.75463867 6.79898438 -5.75463867 6.13898438 -5.75463867 5.45898438 C-7.33791195 5.31250043 -8.92126241 5.16685084 -10.50463867 5.02148438 C-11.38635742 4.94027344 -12.26807617 4.8590625 -13.17651367 4.77539062 C-14.94768555 4.61876953 -14.94768555 4.61876953 -16.75463867 4.45898438 C-17.55039307 4.37519531 -18.34614746 4.29140625 -19.16601562 4.20507812 C-27.77398673 3.36782866 -36.33419296 3.30624246 -44.97363281 3.32861328 C-47.44822245 3.33399761 -49.92263247 3.32862388 -52.3972168 3.32226562 C-53.99943073 3.32292615 -55.60164456 3.32420679 -57.20385742 3.32617188 C-57.92909103 3.32414764 -58.65432465 3.32212341 -59.40153503 3.32003784 C-65.58147423 3.34781285 -71.85884718 3.49372054 -77.75463867 5.45898438 Z M-70.75463867 93.45898438 C-72.67018664 93.79868746 -74.58662302 94.13350293 -76.50463867 94.45898438 C-80.41434895 95.16338748 -84.00440959 96.13077824 -87.75463867 97.45898438 C-88.45975586 97.61625 -89.16487305 97.77351563 -89.89135742 97.93554688 C-99.80197656 100.21210564 -108.69672112 104.96595294 -117.75463867 109.45898438 C-117.75463867 110.11898437 -117.75463867 110.77898437 -117.75463867 111.45898438 C-118.30635742 111.56339844 -118.85807617 111.6678125 -119.42651367 111.77539062 C-122.25052377 112.60458822 -124.48018783 113.88698087 -127.00463867 115.39648438 C-127.89666992 115.92113281 -128.78870117 116.44578125 -129.70776367 116.98632812 C-130.7209668 117.71529297 -130.7209668 117.71529297 -131.75463867 118.45898438 C-131.75463867 119.11898437 -131.75463867 119.77898437 -131.75463867 120.45898438 C-132.52807617 120.79929687 -132.52807617 120.79929687 -133.31713867 121.14648438 C-138.83898558 124.11978656 -142.97396651 127.41808816 -146.75463867 132.45898438 C-149.62110702 135.48470096 -152.63705111 138.21199487 -155.81713867 140.89648438 C-159.15083564 143.7798508 -161.45091251 146.6742914 -163.75463867 150.45898438 C-164.37338867 151.22210938 -164.99213867 151.98523438 -165.62963867 152.77148438 C-167.51880531 155.16072453 -169.27854496 157.57588107 -171.00463867 160.08398438 C-171.52541992 160.839375 -172.04620117 161.59476562 -172.58276367 162.37304688 C-173.99953671 164.49614 -173.99953671 164.49614 -173.75463867 167.45898438 C-174.41463867 167.45898438 -175.07463867 167.45898438 -175.75463867 167.45898438 C-182.33138203 180.02564738 -182.33138203 180.02564738 -186.75463867 193.45898438 C-187.27165281 195.37668478 -187.79258439 197.29333272 -188.31713867 199.20898438 C-188.68452148 200.58183594 -188.68452148 200.58183594 -189.05932617 201.98242188 C-189.61318387 203.95515099 -190.26206143 205.90113326 -190.94213867 207.83398438 C-191.78544041 210.5584977 -191.82723885 212.62757728 -191.75463867 215.45898438 C-192.22193865 218.26278424 -192.85404507 220.75720358 -193.75463867 223.45898438 C-193.85161867 226.15539426 -193.89460857 228.82517657 -193.88745117 231.52148438 C-193.8884079 232.30918213 -193.88936462 233.09687988 -193.89035034 233.90844727 C-193.89103041 235.57275472 -193.8891882 237.23706484 -193.88500977 238.90136719 C-193.87965905 241.44927934 -193.88496059 243.99701521 -193.89135742 246.54492188 C-193.89069661 248.16210976 -193.88941538 249.77929754 -193.88745117 251.39648438 C-193.8894754 252.15904541 -193.89149963 252.92160645 -193.89358521 253.70727539 C-193.87946962 256.89045353 -193.76873095 259.41670754 -192.75463867 262.45898438 C-192.71588946 264.12520053 -192.70961007 265.79292609 -192.75463867 267.45898438 C-192.09463867 267.45898438 -191.43463867 267.45898438 -190.75463867 267.45898438 C-190.94026367 268.18085938 -191.12588867 268.90273438 -191.31713867 269.64648438 C-191.77459174 272.5872541 -191.48980224 274.60001495 -190.75463867 277.45898438 C-190.09463867 277.45898438 -189.43463867 277.45898438 -188.75463867 277.45898438 C-188.63088867 278.63460937 -188.50713867 279.81023437 -188.37963867 281.02148438 C-186.65563039 294.50653545 -179.85495059 306.52487902 -173.75463867 318.45898438 C-173.09463867 318.45898438 -172.43463867 318.45898438 -171.75463867 318.45898438 C-171.65151367 319.01585937 -171.54838867 319.57273437 -171.44213867 320.14648438 C-170.61452466 322.93027695 -169.37726115 325.05750311 -167.75463867 327.45898438 C-167.09463867 327.78898438 -166.43463867 328.11898437 -165.75463867 328.45898438 C-165.42463867 329.44898438 -165.09463867 330.43898438 -164.75463867 331.45898438 C-162.91275255 333.511689 -162.91275255 333.511689 -160.75463867 334.45898438 C-160.48651367 335.01585937 -160.21838867 335.57273437 -159.94213867 336.14648438 C-156.16499015 343.50198412 -149.08906505 349.23069539 -143.12963867 354.77148438 C-141.71811523 356.09599609 -141.71811523 356.09599609 -140.27807617 357.44726562 C-137.90153827 359.77066719 -137.90153827 359.77066719 -134.75463867 359.45898438 C-134.75463867 360.11898438 -134.75463867 360.77898437 -134.75463867 361.45898438 C-133.07590802 363.04909784 -133.07590802 363.04909784 -130.94213867 364.58398438 C-129.8805957 365.39222656 -129.8805957 365.39222656 -128.79760742 366.21679688 C-126.72590872 367.7187505 -126.72590872 367.7187505 -123.75463867 367.45898438 C-123.75463867 368.11898438 -123.75463867 368.77898437 -123.75463867 369.45898438 C-122.10463867 369.78898437 -120.45463867 370.11898438 -118.75463867 370.45898438 C-118.75463867 371.11898438 -118.75463867 371.77898437 -118.75463867 372.45898438 C-118.12557617 372.77351563 -117.49651367 373.08804687 -116.84838867 373.41210938 C-115.56448242 374.0540625 -115.56448242 374.0540625 -114.25463867 374.70898438 C-113.33166992 375.16660156 -112.40870117 375.62421875 -111.45776367 376.09570312 C-109.89246769 376.88513708 -108.33500986 377.69145874 -106.80151367 378.54101562 C-100.49242138 381.98358555 -93.6613332 383.60577885 -86.75463867 385.45898438 C-84.9215918 385.99458984 -84.9215918 385.99458984 -83.05151367 386.54101562 C-79.62316906 387.49559025 -76.27906627 387.99349394 -72.75463867 388.45898438 C-71.7878418 388.70455078 -71.7878418 388.70455078 -70.80151367 388.95507812 C-67.17457523 389.84796946 -63.46500749 390.08680232 -59.75463867 390.45898438 C-58.53260742 390.60013672 -58.53260742 390.60013672 -57.28588867 390.74414062 C-51.64393601 391.34742171 -46.04898099 391.56266863 -40.37963867 391.58398438 C-39.36244751 391.5908728 -39.36244751 391.5908728 -38.32470703 391.59790039 C-34.66562804 391.58655511 -31.31935068 391.26104458 -27.75463867 390.45898438 C-26.08797201 390.45898438 -24.42130534 390.45898438 -22.75463867 390.45898438 C-21.76463867 390.12898438 -20.77463867 389.79898437 -19.75463867 389.45898438 C-18.32005237 389.28683402 -16.88187059 389.14332697 -15.44213867 389.02148438 C-11.63602198 388.63285333 -8.36151725 387.77057658 -4.75463867 386.45898438 C-3.59254883 386.23662109 -3.59254883 386.23662109 -2.40698242 386.00976562 C5.7275494 384.3205624 13.57324975 380.58774138 21.24536133 377.45898438 C21.24536133 376.79898437 21.24536133 376.13898438 21.24536133 375.45898438 C22.85411133 375.02585937 22.85411133 375.02585937 24.49536133 374.58398438 C27.3882596 373.71611489 29.65542939 372.92661247 32.24536133 371.45898438 C33.15286133 370.96398437 34.06036133 370.46898437 34.99536133 369.95898438 C35.73786133 369.46398437 36.48036133 368.96898437 37.24536133 368.45898438 C37.24536133 367.79898437 37.24536133 367.13898438 37.24536133 366.45898438 C38.42098633 365.99492188 38.42098633 365.99492188 39.62036133 365.52148438 C42.16866261 364.53023399 42.16866261 364.53023399 44.24536133 363.45898438 C44.24536133 362.79898437 44.24536133 362.13898438 44.24536133 361.45898438 C44.86411133 361.33523438 45.48286133 361.21148437 46.12036133 361.08398438 C48.43656964 360.58701081 48.43656964 360.58701081 50.24536133 358.45898438 C51.34415084 357.51518784 52.44894799 356.57836499 53.55786133 355.64648438 C56.60396119 353.04539087 59.44551695 350.32711764 62.24536133 347.45898438 C62.91051758 346.82734375 63.57567383 346.19570313 64.26098633 345.54492188 C64.97770508 344.8565625 65.69442383 344.16820312 66.43286133 343.45898438 C67.10704102 342.81960938 67.7812207 342.18023437 68.47583008 341.52148438 C70.40391311 339.2741823 71.30116617 337.24799161 72.24536133 334.45898438 C72.90536133 334.45898438 73.56536133 334.45898438 74.24536133 334.45898438 C74.34848633 333.81960938 74.45161133 333.18023437 74.55786133 332.52148438 C74.78473633 331.84085938 75.01161133 331.16023437 75.24536133 330.45898438 C76.23536133 330.12898437 77.22536133 329.79898438 78.24536133 329.45898438 C78.97859929 327.44390079 78.97859929 327.44390079 79.24536133 325.45898438 C79.90536133 325.45898438 80.56536133 325.45898438 81.24536133 325.45898438 C85.86603756 319.2934435 93.24536133 308.24674372 93.24536133 300.45898438 C93.90536133 300.12898437 94.56536133 299.79898438 95.24536133 299.45898438 C94.91536133 298.79898438 94.58536133 298.13898438 94.24536133 297.45898438 C94.90536133 297.45898438 95.56536133 297.45898438 96.24536133 297.45898438 C98.8194685 290.226969 100.62831643 282.95951467 102.24536133 275.45898438 C102.44258789 274.55535156 102.63981445 273.65171875 102.84301758 272.72070312 C103.81739941 268.07975854 104.55005258 263.48110698 104.99926758 258.75976562 C105.19859975 256.89616805 105.47076636 255.04045798 105.76489258 253.18945312 C106.27112897 249.25891855 106.39308601 245.41307829 106.37036133 241.45898438 C106.37422852 240.78609375 106.3780957 240.11320313 106.38208008 239.41992188 C106.37357001 235.01170545 105.91397198 230.81026007 105.24536133 226.45898438 C105.24536133 224.45898438 105.24536133 222.45898438 105.24536133 220.45898438 C104.91536133 219.46898437 104.58536133 218.47898437 104.24536133 217.45898438 C103.91500955 215.92104417 103.60455829 214.37877021 103.30786133 212.83398438 C103.13254883 211.94710937 102.95723633 211.06023437 102.77661133 210.14648438 C102.44304485 208.45903044 102.10968082 206.77153647 101.77661133 205.08398438 C100.86428728 200.70482895 99.67146148 196.63081049 98.01879883 192.47460938 C97.22567002 190.40766762 96.58006666 188.32572652 95.93286133 186.20898438 C92.78253339 176.67596078 87.57018538 167.92138181 82.24536133 159.45898438 C81.86250977 158.84925781 81.4796582 158.23953125 81.08520508 157.61132812 C79.78423591 155.59804124 78.50986435 153.72133696 76.80395508 152.02929688 C75.1648098 150.3778272 73.85689122 148.6569738 72.49536133 146.77148438 C67.07969657 139.48834901 61.2190917 133.26035453 54.24536133 127.45898438 C52.83577148 126.25242187 52.83577148 126.25242187 51.39770508 125.02148438 C49.93010742 123.78398437 49.93010742 123.78398437 48.43286133 122.52148438 C47.51891602 121.74933594 46.6049707 120.9771875 45.66333008 120.18164062 C43.33294895 118.16886334 43.33294895 118.16886334 40.24536133 118.45898438 C40.24536133 117.79898438 40.24536133 117.13898438 40.24536133 116.45898438 C38.13647125 114.89414087 38.13647125 114.89414087 35.49536133 113.39648438 C34.1727832 112.60564453 34.1727832 112.60564453 32.82348633 111.79882812 C30.57556363 110.63058951 28.71715209 109.92677655 26.24536133 109.45898438 C26.24536133 108.79898438 26.24536133 108.13898438 26.24536133 107.45898438 C25.29661133 107.23210937 24.34786133 107.00523437 23.37036133 106.77148438 C20.19551396 105.87258181 17.4218719 104.60333891 14.49536133 103.08398438 C2.4165105 96.87984736 -9.59511176 94.66275483 -22.94604492 92.92382812 C-25.75463867 92.45898438 -25.75463867 92.45898438 -26.75463867 91.45898438 C-29.15881641 91.34544475 -31.53309113 91.29480039 -33.93823242 91.29101562 C-34.66776627 91.28768723 -35.39730011 91.28435883 -36.14894104 91.28092957 C-37.70166391 91.27585237 -39.25439775 91.27352148 -40.80712891 91.27368164 C-43.15115255 91.27152213 -45.49468451 91.25345155 -47.83862305 91.234375 C-55.69394783 91.20487725 -63.10286687 91.5126224 -70.75463867 93.45898438 Z M123.24536133 354.45898438 C124.24536133 356.45898438 124.24536133 356.45898438 124.24536133 356.45898438 Z M105.24536133 372.45898438 C106.24536133 374.45898438 106.24536133 374.45898438 106.24536133 374.45898438 Z M20.24536133 420.45898438 C20.90536133 421.11898438 21.56536133 421.77898437 22.24536133 422.45898438 C22.24536133 421.79898437 22.24536133 421.13898438 22.24536133 420.45898438 C21.58536133 420.45898438 20.92536133 420.45898438 20.24536133 420.45898438 Z M-136.75463867 421.45898438 C-135.75463867 423.45898438 -135.75463867 423.45898438 -135.75463867 423.45898438 Z M-101.75463867 430.45898438 C-100.75463867 432.45898438 -100.75463867 432.45898438 -100.75463867 432.45898438 Z M-102.75463867 433.45898438 C-101.75463867 435.45898438 -101.75463867 435.45898438 -101.75463867 435.45898438 Z M2.24536133 433.45898438 C3.24536133 435.45898438 3.24536133 435.45898438 3.24536133 435.45898438 Z M3.24536133 435.45898438 C4.24536133 438.45898438 4.24536133 438.45898438 4.24536133 438.45898438 Z M-88.75463867 436.45898438 C-87.75463867 438.45898438 -87.75463867 438.45898438 -87.75463867 438.45898438 Z M-52.75463867 437.45898438 C-53.08463867 438.77898437 -53.41463867 440.09898437 -53.75463867 441.45898438 C-53.09463867 441.12898438 -52.43463867 440.79898437 -51.75463867 440.45898438 C-52.08463867 439.46898437 -52.41463867 438.47898437 -52.75463867 437.45898438 Z M-46.75463867 439.45898438 C-45.75463867 441.45898438 -45.75463867 441.45898438 -45.75463867 441.45898438 Z " fill="#FCFCFC" transform="translate(386.754638671875,86.541015625)"/>
<path d="M0 0 C0.96679674 3.07648688 0.98422695 5.15464955 0.29296875 8.29296875 C0.0309668 9.4850293 0.0309668 9.4850293 -0.23632812 10.70117188 C-0.42646484 11.52166016 -0.61660156 12.34214844 -0.8125 13.1875 C-0.99103516 14.01958984 -1.16957031 14.85167969 -1.35351562 15.70898438 C-2.3886022 20.29400686 -2.3886022 20.29400686 -3 22 C-3.66 22.33 -4.32 22.66 -5 23 C-4.690625 23.7734375 -4.690625 23.7734375 -4.375 24.5625 C-3.9501027 27.32433243 -4.49882007 29.2060017 -5.33203125 31.83984375 C-8.17982241 41.04936722 -10.03385513 50.57366007 -12 60 C-12.66 60 -13.32 60 -14 60 C-13.814375 60.5775 -13.62875 61.155 -13.4375 61.75 C-12.95976454 64.20692525 -13.24270636 65.64397534 -14 68 C-14.66 68 -15.32 68 -16 68 C-15.79375 68.556875 -15.5875 69.11375 -15.375 69.6875 C-14.88635783 72.70079338 -15.80648166 74.21512387 -17 77 C-17.34848528 78.99741561 -17.67956647 80.99789274 -18 83 C-18.46040454 85.19152563 -18.93998387 87.37910021 -19.4375 89.5625 C-19.68371094 90.65691406 -19.92992187 91.75132812 -20.18359375 92.87890625 C-21 96 -21 96 -22.09765625 98.65234375 C-23.23918061 101.20310089 -23.23918061 101.20310089 -23 105 C-23.66 105 -24.32 105 -25 105 C-24.690625 105.7734375 -24.690625 105.7734375 -24.375 106.5625 C-23.95159816 109.31461193 -24.49272696 111.18792726 -25.32421875 113.8125 C-26.47828079 117.54819215 -27.4062648 121.33538044 -28.30078125 125.140625 C-29 128 -29 128 -30.25 131.75 C-29.93469572 135.8489556 -28.87875888 136.44057761 -25.875 139.125 C-24.25848135 140.42726542 -22.6340343 141.71978139 -21 143 C-18.00544043 145.68870194 -15.5430641 148.21247903 -14 152 C-13.34 152 -12.68 152 -12 152 C-10.28891311 153.62102968 -8.62746694 155.29503463 -7 157 C-6.236875 157.763125 -5.47375 158.52625 -4.6875 159.3125 C-4.130625 159.869375 -3.57375 160.42625 -3 161 C-3.33 161.99 -3.66 162.98 -4 164 C-6.1796875 164.9140625 -6.1796875 164.9140625 -8.875 165.625 C-9.75929688 165.86476563 -10.64359375 166.10453125 -11.5546875 166.3515625 C-12.36164063 166.56554687 -13.16859375 166.77953125 -14 167 C-14.99 167.33 -15.98 167.66 -17 168 C-17.66 167.67 -18.32 167.34 -19 167 C-19.33 167.66 -19.66 168.32 -20 169 C-22.08448511 169.47840642 -24.17187177 169.94641728 -26.26953125 170.36328125 C-29.2719154 171.06340803 -32.09505114 172.03219163 -35 173.0625 C-38.77578315 174.37266291 -42.20530766 175.27679558 -46.1875 175.625 C-47.445625 175.74875 -48.70375 175.8725 -50 176 C-50.33 176.66 -50.66 177.32 -51 178 C-52.77734375 178.66796875 -52.77734375 178.66796875 -54.9375 179.1875 C-55.64777344 179.36667969 -56.35804688 179.54585937 -57.08984375 179.73046875 C-59 180 -59 180 -61 179 C-61.33 179.66 -61.66 180.32 -62 181 C-63.93359375 181.74609375 -63.93359375 181.74609375 -66.4375 182.4375 C-67.33597656 182.69144531 -68.23445313 182.94539062 -69.16015625 183.20703125 C-70.09730469 183.46871094 -71.03445312 183.73039063 -72 184 C-73.79274733 184.53807921 -75.58446842 185.07959291 -77.375 185.625 C-78.91427707 186.09129566 -80.45579735 186.55028484 -82 187 C-83.07121094 187.32097656 -83.07121094 187.32097656 -84.1640625 187.6484375 C-86 188 -86 188 -88 187 C-88.495 187.99 -88.495 187.99 -89 189 C-90.9375 189.6875 -90.9375 189.6875 -93 190 C-93.66 189.67 -94.32 189.34 -95 189 C-95 189.66 -95 190.32 -95 191 C-96.65 191.33 -98.3 191.66 -100 192 C-101.125 190.3125 -101.125 190.3125 -102 188 C-101.34735761 186.32779184 -100.67734157 184.66235695 -100 183 C-99.43266088 180.47819117 -98.90930691 177.97627054 -98.4375 175.4375 C-97.96467677 172.95699658 -97.4845773 170.47826678 -97 168 C-96.84660156 167.20722656 -96.69320312 166.41445313 -96.53515625 165.59765625 C-96 164 -96 164 -94 163 C-92.7862849 160.76559436 -91.65531291 158.54235489 -90.5625 156.25 C-84.86124402 144.43062201 -84.86124402 144.43062201 -82 143 C-81.29373761 141.01363702 -80.63106429 139.01151741 -80 137 C-79.36184656 135.65278717 -78.70674629 134.31252882 -78 133 C-77.34 133 -76.68 133 -76 133 C-75.6596875 131.7934375 -75.6596875 131.7934375 -75.3125 130.5625 C-73.94218405 126.843071 -72.20426594 123.62214104 -70.2421875 120.19140625 C-68.72287605 117.51111152 -67.34912147 114.76924933 -66 112 C-65.34 112 -64.68 112 -64 112 C-63.731875 111.113125 -63.46375 110.22625 -63.1875 109.3125 C-62.07902669 106.22044287 -60.72537002 103.77559525 -59 101 C-58.505 99.515 -58.505 99.515 -58 98 C-57.34 98 -56.68 98 -56 98 C-55.73703125 97.12859375 -55.4740625 96.2571875 -55.203125 95.359375 C-54.01031056 92.02878923 -52.56719309 89.27865515 -50.75 86.25 C-50.13382812 85.21488281 -49.51765625 84.17976563 -48.8828125 83.11328125 C-47.67105033 81.10959982 -46.45763994 79.10691377 -45.2421875 77.10546875 C-44.70851563 76.22503906 -44.17484375 75.34460938 -43.625 74.4375 C-43.14289063 73.65246094 -42.66078125 72.86742187 -42.1640625 72.05859375 C-40.86521927 69.91514853 -40.86521927 69.91514853 -40 67 C-39.34 67 -38.68 67 -38 67 C-37.62875 66.0409375 -37.62875 66.0409375 -37.25 65.0625 C-35.59188428 61.00011649 -33.7964416 57.00275094 -32 53 C-31.34 53 -30.68 53 -30 53 C-29.61714844 51.69289063 -29.61714844 51.69289063 -29.2265625 50.359375 C-27.97113007 46.92092949 -26.41018769 44.28184339 -24.375 41.25 C-21.84947153 37.89520609 -21.84947153 37.89520609 -21 34 C-20.34 34 -19.68 34 -19 34 C-18.65388672 32.77216797 -18.65388672 32.77216797 -18.30078125 31.51953125 C-16.71875973 27.2390466 -14.55027241 23.57630167 -12.1875 19.6875 C-11.2842662 18.1802205 -10.38191358 16.67241259 -9.48046875 15.1640625 C-9.05040527 14.44637695 -8.6203418 13.72869141 -8.17724609 12.98925781 C-6.34549102 9.89403999 -4.62721576 6.74083548 -2.9375 3.56640625 C-2 2 -2 2 0 0 Z " fill="#FDFCFC" transform="translate(320,209)"/>
<path d="M0 0 C10.10536385 3.31981267 19.70572557 14.26158648 24.9375 23.375 C26 26 26 26 26 28 C26.66 28.33 27.32 28.66 28 29 C29.11328125 30.75 29.11328125 30.75 30.3125 33 C30.745625 33.80566406 31.17875 34.61132812 31.625 35.44140625 C32.07875 36.28574219 32.5325 37.13007813 33 38 C34.35718577 40.38613912 35.71691157 42.77073496 37.08203125 45.15234375 C38 47 38 47 38 49 C38.66 49 39.32 49 40 49 C40.67154933 50.28913487 41.33708859 51.58140204 42 52.875 C42.37125 53.59429687 42.7425 54.31359375 43.125 55.0546875 C44 57 44 57 44 59 C44.66 59.33 45.32 59.66 46 60 C46 60.99 46 61.98 46 63 C46.66 63 47.32 63 48 63 C48.33 64.65 48.66 66.3 49 68 C49.66 68 50.32 68 51 68 C52.61234852 71.07811989 53.99936715 73.998027 55.0625 77.3125 C55.69844477 80.13973014 55.69844477 80.13973014 58 81 C59.10103609 82.77706084 60.13403304 84.59679085 61.125 86.4375 C61.66382813 87.42621094 62.20265625 88.41492188 62.7578125 89.43359375 C64 92 64 92 64 94 C64.66 94.33 65.32 94.66 66 95 C67.42343586 97.25013481 68.76007223 99.49422517 70.0625 101.8125 C70.42666016 102.44220703 70.79082031 103.07191406 71.16601562 103.72070312 C72.88619324 106.75088661 74.43267976 109.53498254 75 113 C75.66 113 76.32 113 77 113 C77.83819158 114.62249941 78.6704116 116.24808497 79.5 117.875 C80.19609375 119.23238281 80.19609375 119.23238281 80.90625 120.6171875 C82 123 82 123 82 125 C82.66 125.33 83.32 125.66 84 126 C85.10103609 127.77706084 86.13403304 129.59679085 87.125 131.4375 C87.66382813 132.42621094 88.20265625 133.41492188 88.7578125 134.43359375 C90 137 90 137 90 139 C90.66 139.33 91.32 139.66 92 140 C92.33 140.99 92.66 141.98 93 143 C93.66 143.66 94.32 144.32 95 145 C96.07910296 146.81155109 97.11631831 148.6483138 98.125 150.5 C98.66382813 151.4796875 99.20265625 152.459375 99.7578125 153.46875 C101 156 101 156 101 158 C101.66 158.33 102.32 158.66 103 159 C104.0703125 160.55859375 104.0703125 160.55859375 105.125 162.4375 C105.65480469 163.36369141 105.65480469 163.36369141 106.1953125 164.30859375 C107 166 107 166 107 168 C107.66 168.33 108.32 168.66 109 169 C111.0095568 171.93704456 112 173.39222485 112 177 C112.66 177 113.32 177 114 177 C114.33 178.98 114.66 180.96 115 183 C110.80595853 180.90297927 108.39177214 178.27156735 105.4921875 174.7109375 C103.56337399 172.49936598 101.29195613 170.82008281 99 169 C99 168.34 99 167.68 99 167 C98.4225 166.938125 97.845 166.87625 97.25 166.8125 C94.09076075 165.6716636 93.05637779 163.64391431 91 161 C89.91530156 160.04004188 88.80922964 159.10391306 87.6875 158.1875 C85.05840203 156.00958197 82.86682865 153.75150221 80.6875 151.125 C77.31735581 147.1372502 73.50345238 144.07738564 69.33203125 140.95703125 C66.82589368 138.85389067 65.01008648 136.5727476 63 134 C61.82458008 132.8810413 60.61607125 131.79566854 59.375 130.75 C58.35019531 129.87021484 58.35019531 129.87021484 57.3046875 128.97265625 C56.54414063 128.32167969 55.78359375 127.67070312 55 127 C53.15986327 125.40364207 51.32658581 123.79934555 49.5 122.1875 C48.6440625 121.43855469 47.788125 120.68960938 46.90625 119.91796875 C45 118 45 118 45 116 C44.443125 115.79375 43.88625 115.5875 43.3125 115.375 C40.74835626 113.85037399 39.30370249 112.00925632 37.46484375 109.6953125 C34.65269018 106.44071344 31.26475203 103.78629699 28 101 C26.18034539 99.42489435 24.36794625 97.84137191 22.5625 96.25 C21.71816406 95.51265625 20.87382812 94.7753125 20.00390625 94.015625 C18 92 18 92 17 89 C15.20767663 89.30871122 13.41615679 89.62209064 11.625 89.9375 C10.12839844 90.19853516 10.12839844 90.19853516 8.6015625 90.46484375 C6.03090344 90.87712062 6.03090344 90.87712062 4 92 C3.34 91.67 2.68 91.34 2 91 C1.67 91.66 1.34 92.32 1 93 C-0.77734375 93.66796875 -0.77734375 93.66796875 -2.9375 94.1875 C-3.64777344 94.36667969 -4.35804688 94.54585938 -5.08984375 94.73046875 C-7 95 -7 95 -9 94 C-9.495 94.99 -9.495 94.99 -10 96 C-12.16072227 96.78623891 -14.35490875 97.48201226 -16.5625 98.125 C-17.76003906 98.47820312 -18.95757812 98.83140625 -20.19140625 99.1953125 C-21.11824219 99.46085937 -22.04507812 99.72640625 -23 100 C-24.69488638 94.91534086 -23.45965038 90.04441198 -21.6875 85.125 C-20.02054574 80.43617791 -18.94335464 75.664753 -17.875 70.8125 C-17.70444092 70.03986816 -17.53388184 69.26723633 -17.3581543 68.47119141 C-16.459837 64.32847901 -15.65485218 60.1897175 -15 56 C-14.34 56 -13.68 56 -13 56 C-13.061875 54.865625 -13.12375 53.73125 -13.1875 52.5625 C-13.19475773 48.4328519 -12.20797382 45.20970349 -10.79296875 41.36328125 C-9.68387744 38.05786132 -9.10257945 34.70392903 -8.46875 31.28125 C-7.88362065 28.4336205 -6.91854116 25.75562349 -6 23 C-5.835 21.845 -5.67 20.69 -5.5 19.5 C-5.01325946 16.09281624 -4.10494281 13.24983179 -3 10 C-2.45276128 7.62466672 -1.94903414 5.24440813 -1.46484375 2.85546875 C-1 1 -1 1 0 0 Z " fill="#FDFCFC" transform="translate(341,185)"/>
<path d="M0 0 C6.65259235 2.8145583 14.25396622 9.25973526 17 16 C17.66 16 18.32 16 19 16 C20.33723785 17.66353554 21.66982725 19.33080977 23 21 C24.73530623 22.4801923 26.50854308 23.91679359 28.3125 25.3125 C32.52766101 28.68013863 36.06972494 32.12441963 39.49609375 36.27734375 C41.42986063 38.49238581 43.69669584 40.18527551 46 42 C46 42.66 46 43.32 46 44 C46.556875 44.061875 47.11375 44.12375 47.6875 44.1875 C52.06634767 45.72601404 54.63686826 49.55516362 57.5 53.0625 C59.83011165 55.80038118 62.19291668 57.78388159 65 60 C65.804375 61.0828125 65.804375 61.0828125 66.625 62.1875 C67.95882513 64.29998833 67.95882513 64.29998833 71 65 C72.75 66.875 72.75 66.875 74 69 C73.67 69.99 73.34 70.98 73 72 C70.92578125 72.87890625 70.92578125 72.87890625 68.3125 73.5625 C67.40886719 73.80871094 66.50523437 74.05492187 65.57421875 74.30859375 C64.29998047 74.65083984 64.29998047 74.65083984 63 75 C61.88625 75.37125 60.7725 75.7425 59.625 76.125 C53.4 78.2 53.4 78.2 51 77 C50.67 77.66 50.34 78.32 50 79 C-13.03 78.67 -76.06 78.34 -141 78 C-140 76 -140 76 -138.21484375 75.21875 C-123.7150368 70.6424816 -123.7150368 70.6424816 -121 72 C-121 71.34 -121 70.68 -121 70 C-119.94941406 69.74605469 -118.89882813 69.49210937 -117.81640625 69.23046875 C-108.6328957 67.01572192 -108.6328957 67.01572192 -99.625 64.1875 C-96 63 -96 63 -94 64 C-93.505 63.01 -93.505 63.01 -93 62 C-91.23092672 61.51437204 -89.45670696 61.04399066 -87.66796875 60.63671875 C-84.29164998 59.83095014 -80.96339573 58.88789632 -77.625 57.9375 C-76.42101562 57.59589844 -75.21703125 57.25429688 -73.9765625 56.90234375 C-71.1070104 56.12371192 -71.1070104 56.12371192 -69 55 C-68.34 55.33 -67.68 55.66 -67 56 C-67 55.34 -67 54.68 -67 54 C-65.88625 53.855625 -64.7725 53.71125 -63.625 53.5625 C-60.17857953 53.21627965 -60.17857953 53.21627965 -58 52 C-57.34 52.33 -56.68 52.66 -56 53 C-55.505 52.01 -55.505 52.01 -55 51 C-52.70703125 50.21875 -52.70703125 50.21875 -49.8125 49.5 C-45.81036053 48.47235387 -41.91229938 47.33373842 -38 46 C-31.26530612 43.86734694 -31.26530612 43.86734694 -29 45 C-29 44.34 -29 43.68 -29 43 C-28.13890625 42.87367188 -27.2778125 42.74734375 -26.390625 42.6171875 C-23.05870397 42.01068575 -19.96979688 41.16860251 -16.75 40.125 C-15.19539063 39.63386719 -15.19539063 39.63386719 -13.609375 39.1328125 C-10.71176747 38.15518084 -10.71176747 38.15518084 -9 35 C-8.61636839 33.00903594 -8.28946832 31.00681818 -8 29 C-7.53959546 26.80847437 -7.06001613 24.62089979 -6.5625 22.4375 C-6.31628906 21.34308594 -6.07007813 20.24867188 -5.81640625 19.12109375 C-5 16 -5 16 -3.93359375 13.35546875 C-3.03386368 11.08543849 -2.68961509 9.29259234 -2.5 6.875 C-2 3 -2 3 0 0 Z " fill="#FEFDFD" transform="translate(393,328)"/>
<path d="M0 0 C2.89453125 2.21484375 2.89453125 2.21484375 5.8125 4.9375 C6.56563477 5.62102539 6.56563477 5.62102539 7.33398438 6.31835938 C8.60265196 7.49727089 9.80712532 8.74445239 11 10 C11 10.66 11 11.32 11 12 C11.59256592 12.27312012 12.18513184 12.54624023 12.7956543 12.82763672 C16.31874808 14.70136541 18.94987934 17.37788312 21.8125 20.125 C22.42287109 20.66898437 23.03324219 21.21296875 23.66210938 21.7734375 C27.89248262 25.8559623 27.89248262 25.8559623 28.19897461 29.1171875 C27.75268407 33.0030618 26.4924375 36.41814999 25 40 C25 41.32 25 42.64 25 44 C24.34 44 23.68 44 23 44 C23.309375 44.7734375 23.309375 44.7734375 23.625 45.5625 C24.05014749 48.3259587 23.52178789 50.23273698 22.66015625 52.86328125 C21.94102904 55.0922629 21.94102904 55.0922629 21.37109375 57.79296875 C19.60123621 65.44886681 19.60123621 65.44886681 16.75 68.0625 C13.50372803 69.16918363 10.34863076 70.24181945 7 71 C6.01 70.505 6.01 70.505 5 70 C4.67 70.66 4.34 71.32 4 72 C1.66460431 72.75670381 -0.62344772 73.4048537 -3 74 C-4.29844061 74.34405909 -5.59661848 74.68911128 -6.89453125 75.03515625 C-8.87372826 75.55516506 -10.85341456 76.07313383 -12.83398438 76.58789062 C-16.50699322 77.54370629 -16.50699322 77.54370629 -20 79 C-25.11274323 75.42234841 -29.04368319 71.869313 -33 67 C-35.25572121 64.90619937 -37.62935956 62.96174148 -40 61 C-41.42201492 59.79796529 -42.83864943 58.58953838 -44.25 57.375 C-44.89453125 56.82585937 -45.5390625 56.27671875 -46.203125 55.7109375 C-49.79106057 52.29459884 -49.79106057 52.29459884 -51 50 C-50.75146754 47.35194582 -50.38351177 45.11400608 -49.75 42.5625 C-49.60175781 41.90701172 -49.45351563 41.25152344 -49.30078125 40.57617188 C-48.87883827 38.71476853 -48.43982462 36.85725943 -48 35 C-47.65867598 33.33495141 -47.32157519 31.66897522 -47 30 C-46.34 30 -45.68 30 -45 30 C-45.20625 29.484375 -45.4125 28.96875 -45.625 28.4375 C-46.1648065 24.92875773 -45.08161899 22.35871161 -44 19 C-43.5978125 17.14375 -43.5978125 17.14375 -43.1875 15.25 C-42 12 -42 12 -39.875 10.25 C-30.84325134 6.32315276 -21.60206272 3.47514218 -11.96484375 1.4765625 C-9.82418527 1.01591036 -9.82418527 1.01591036 -7.25 -0.1875 C-4.28967776 -1.25650525 -3.00677615 -0.94905416 0 0 Z " fill="#FDFCFD" transform="translate(354,289)"/>
<path d="M0 0 C1.45823212 -0.0270043 2.91660675 -0.04639787 4.375 -0.0625 C5.18710938 -0.07410156 5.99921875 -0.08570313 6.8359375 -0.09765625 C9 0 9 0 11 1 C11 1.66 11 2.32 11 3 C11.886875 2.9175 12.77375 2.835 13.6875 2.75 C18.55124319 3.11707496 20.67410321 5.67410321 24 9 C24.99 9.66 25.98 10.32 27 11 C27 11.66 27 12.32 27 13 C27.804375 13.268125 28.60875 13.53625 29.4375 13.8125 C30.283125 14.204375 31.12875 14.59625 32 15 C32.495 16.485 32.495 16.485 33 18 C33.99 18 34.98 18 36 18 C36 18.66 36 19.32 36 20 C36.680625 20.2475 37.36125 20.495 38.0625 20.75 C47.35135135 24.7027027 47.35135135 24.7027027 49 28 C49.825 28.12375 50.65 28.2475 51.5 28.375 C55.36625468 29.06540262 58.41589159 30.40262956 61.94921875 32.0625 C64.12280288 33.10028055 64.12280288 33.10028055 67 34 C67 34.66 67 35.32 67 36 C67.99 35.67 68.98 35.34 70 35 C73.44584885 35.84520821 76.73300748 36.90192112 80.0625 38.125 C83.19759899 39.05885927 85.7484179 39.07225738 89 39 C90.485 39.495 90.485 39.495 92 40 C102.54474412 41.53068866 112.74576792 41.4824861 123.22265625 39.5 C125.7214343 39.05014966 128.15968936 38.77278581 130.6875 38.5625 C134.76715435 38.16793489 138.33724598 36.99026521 142.15234375 35.5234375 C144 35 144 35 146 36 C146 35.34 146 34.68 146 34 C149.61973402 32.68373308 152.09567131 32 156 32 C156.33 31.34 156.66 30.68 157 30 C163.34615385 27 163.34615385 27 166 27 C166 26.34 166 25.68 166 25 C167.78881736 23.99491199 169.58114696 22.99607264 171.375 22 C172.37273437 21.443125 173.37046875 20.88625 174.3984375 20.3125 C177 19 177 19 179 19 C179 18.34 179 17.68 179 17 C181.09360204 15.28088734 183.19107253 13.65897863 185.375 12.0625 C190.19406497 8.5600628 190.19406497 8.5600628 194 4 C197.42232972 2.85922343 200.08673217 2.90184883 203.6875 2.9375 C205.45673828 2.95103516 205.45673828 2.95103516 207.26171875 2.96484375 C208.16535156 2.97644531 209.06898438 2.98804688 210 3 C208.51804579 6.21458724 206.70259491 8.93335896 204.5625 11.75 C203.66724609 12.94882812 203.66724609 12.94882812 202.75390625 14.171875 C202.17511719 14.77515625 201.59632813 15.3784375 201 16 C200.01 16 199.02 16 198 16 C197.62875 16.86625 197.62875 16.86625 197.25 17.75 C194.77105008 22.21210986 191.33130355 24.49746906 187 27 C184.65357067 28.58465453 182.31792958 30.18374948 179.98828125 31.79296875 C178 33 178 33 176 33 C176 33.66 176 34.32 176 35 C174.10545176 35.96087136 172.20930419 36.91858969 170.3125 37.875 C169.25675781 38.40867187 168.20101562 38.94234375 167.11328125 39.4921875 C162.36970731 41.78957714 158.23482423 43.26955941 153 44 C153 44.66 153 45.32 153 46 C139.90944882 50.23228346 139.90944882 50.23228346 133 51 C132.01 51.495 132.01 51.495 131 52 C129.33333333 52 127.66666667 52 126 52 C124.515 52.495 124.515 52.495 123 53 C112.03219819 54.61820027 100.98087043 54.39409312 90 53 C89.26910156 52.91621094 88.53820312 52.83242188 87.78515625 52.74609375 C80.09375 51.84375 80.09375 51.84375 77 51 C76.67 50.34 76.34 49.68 76 49 C73.89262312 48.7960603 71.78490423 48.59516704 69.67578125 48.41015625 C64.8807419 47.67515022 60.49863815 45.75641273 56 44 C54.00340982 43.32318977 52.00535378 42.65038501 50 42 C50 41.34 50 40.68 50 40 C49.34 39.9175 48.68 39.835 48 39.75 C44.00960837 38.75240209 40.61450357 36.92833317 37 35 C37 34.34 37 33.68 37 33 C35.88625 32.566875 35.88625 32.566875 34.75 32.125 C32.43260203 31.17697356 30.22082885 30.15154089 28 29 C28 28.34 28 27.68 28 27 C27.278125 26.7525 26.55625 26.505 25.8125 26.25 C22.72393418 24.87730408 20.48988582 23.27646704 18 21 C18 20.34 18 19.68 18 19 C17.01 18.67 16.02 18.34 15 18 C13.46484375 16.40625 13.46484375 16.40625 11.9375 14.5 C9.82278233 11.81893599 9.82278233 11.81893599 7 10 C7 9.34 7 8.68 7 8 C6.01 7.67 5.02 7.34 4 7 C0 2.54285714 0 2.54285714 0 0 Z " fill="#FBF9F9" transform="translate(236,409)"/>
<path d="M0 0 C-1.40605663 4.92119819 -4.11789548 6.83093508 -8 10 C-8.62068359 11.24330078 -8.62068359 11.24330078 -9.25390625 12.51171875 C-11.68559764 15.97701497 -13.95241738 16.28795565 -18 17.3125 C-19.2375 17.63863281 -20.475 17.96476562 -21.75 18.30078125 C-25 19 -25 19 -28 19 C-28.33 19.66 -28.66 20.32 -29 21 C-30.77855204 21.94209017 -32.59850965 22.80713953 -34.4375 23.625 C-35.42621094 24.07101563 -36.41492188 24.51703125 -37.43359375 24.9765625 C-40 26 -40 26 -42 26 C-42 26.66 -42 27.32 -42 28 C-43.051875 28.4125 -44.10375 28.825 -45.1875 29.25 C-48.60607461 30.71510341 -51.17936709 32.550503 -54 35 C-58.77777778 39 -58.77777778 39 -61 39 C-61.26425781 39.60328125 -61.52851563 40.2065625 -61.80078125 40.828125 C-63.05755074 43.1042287 -64.15440162 44.16818433 -66.1875 45.75 C-72.26158505 50.7759581 -76.98838717 56.5364176 -80.95703125 63.3359375 C-82.34615977 65.55229986 -83.65717483 66.82858741 -86 68 C-86.70814891 69.64946881 -87.36789155 71.31992228 -88 73 C-89.29380408 75.6150525 -90.63311139 78.20313669 -91.9765625 80.79296875 C-93.14022889 82.89693891 -93.14022889 82.89693891 -93 85 C-93.66 85 -94.32 85 -95 85 C-95.103125 85.78375 -95.20625 86.5675 -95.3125 87.375 C-96.18988154 92.00119356 -97.27232151 96.61053935 -99 101 C-99.99 101.495 -99.99 101.495 -101 102 C-100.79375 102.53625 -100.5875 103.0725 -100.375 103.625 C-99.86884915 106.83062202 -100.9622626 108.94783119 -102 112 C-102.03772913 113.9996441 -102.04649906 116.00054061 -102 118 C-102.495 118.495 -102.495 118.495 -103 119 C-103.10017446 121.18304713 -103.13081258 123.36934412 -103.1328125 125.5546875 C-103.13376923 126.21203888 -103.13472595 126.86939026 -103.13571167 127.54666138 C-103.13639345 128.940451 -103.1345393 130.33424378 -103.13037109 131.72802734 C-103.12503972 133.85912253 -103.13030724 135.99000531 -103.13671875 138.12109375 C-103.13605763 139.4739588 -103.13477578 140.82682371 -103.1328125 142.1796875 C-103.13168457 143.41444824 -103.13055664 144.64920898 -103.12939453 145.92138672 C-103.14026813 149.03938011 -103.14026813 149.03938011 -102 152 C-100.83116883 158.66233766 -100.83116883 158.66233766 -102 161 C-101.34 161.33 -100.68 161.66 -100 162 C-98.71428571 168.42857143 -98.71428571 168.42857143 -100 171 C-100.66 171 -101.32 171 -102 171 C-102.99 173.97 -103.98 176.94 -105 180 C-105.99 180 -106.98 180 -108 180 C-111.18414751 171.45226422 -114.04823034 163.47701494 -114.75390625 154.33203125 C-114.93702676 152.03393486 -114.93702676 152.03393486 -115.52734375 149.9921875 C-116.07219806 147.69569411 -116.06230529 145.66841889 -116 143.3125 C-115.96236969 141.87549262 -115.95337141 140.43674355 -116 139 C-116.33 138.67 -116.66 138.34 -117 138 C-117.23880597 130.47761194 -117.23880597 130.47761194 -116 128 C-115.92965885 125.26988415 -116.00290626 122.55435718 -116.0625 119.82421875 C-116.00123377 117.05575087 -115.6160753 114.69430264 -115 112 C-114.78601563 110.94425781 -114.57203125 109.88851562 -114.3515625 108.80078125 C-112.88273254 101.74881808 -111.2262325 94.85237522 -109 88 C-108.34 88 -107.68 88 -107 88 C-107.33 87.01 -107.66 86.02 -108 85 C-106.22238536 79.37270458 -103.11716845 73.98746951 -100 69 C-99.01 68.505 -99.01 68.505 -98 68 C-97.32471892 66.00289212 -96.6595196 64.00236818 -96 62 C-94.95909641 60.10959323 -93.85277604 58.25388372 -92.6875 56.4375 C-92.11386719 55.52871094 -91.54023438 54.61992187 -90.94921875 53.68359375 C-88.85778444 50.80420423 -86.54898373 48.47988477 -84 46 C-81.38339294 43.0930947 -78.79263951 40.16495968 -76.20703125 37.23046875 C-75.47871094 36.49441406 -74.75039062 35.75835937 -74 35 C-73.34 35 -72.68 35 -72 35 C-72 34.34 -72 33.68 -72 33 C-71.34 33 -70.68 33 -70 33 C-69.67 32.01 -69.34 31.02 -69 30 C-67.1015625 28.421875 -67.1015625 28.421875 -64.625 26.75 C-63.72652344 26.14285156 -62.82804687 25.53570312 -61.90234375 24.91015625 C-60.94457031 24.27980469 -59.98679687 23.64945313 -59 23 C-58.03191406 22.35933594 -57.06382812 21.71867187 -56.06640625 21.05859375 C-45.2058977 14 -45.2058977 14 -41 14 C-40.67 13.34 -40.34 12.68 -40 12 C-37.89081387 10.86649181 -35.73693377 9.8151688 -33.5625 8.8125 C-32.38816406 8.26207031 -31.21382813 7.71164063 -30.00390625 7.14453125 C-28.51697266 6.57798828 -28.51697266 6.57798828 -27 6 C-26.01 6.495 -26.01 6.495 -25 7 C-24.67 6.34 -24.34 5.68 -24 5 C-22.14453125 4.4375 -22.14453125 4.4375 -19.8125 4 C-17.05458372 3.44667399 -14.54761833 2.84619023 -11.875 1.9375 C-7.99841756 0.67339703 -4.08463634 0 0 0 Z " fill="#FAF8F9" transform="translate(324,194)"/>
<path d="M0 0 C6.0966264 0.32500398 11.48127004 0.86833006 17.125 3.2578125 C19.2569324 4.15930289 19.2569324 4.15930289 22.6875 4.8125 C27.81574382 5.99751252 32.42011308 8.39487251 37.14453125 10.66015625 C39.97841206 12.05764008 39.97841206 12.05764008 43 13 C43 13.66 43 14.32 43 15 C43.515625 15.0825 44.03125 15.165 44.5625 15.25 C48.04455732 16.32140225 50.87200885 18.13523605 54 20 C54 20.66 54 21.32 54 22 C54.66 22.20625 55.32 22.4125 56 22.625 C62.29426935 25.50987345 67.20559431 30.07942574 72 35 C73.09780905 35.88296337 74.20210947 36.75791183 75.3125 37.625 C76.199375 38.40875 77.08625 39.1925 78 40 C78 40.99 78 41.98 78 43 C78.556875 43.185625 79.11375 43.37125 79.6875 43.5625 C83.03134807 45.64110826 85.04807828 48.60813602 87 52 C87 52.66 87 53.32 87 54 C87.66 54 88.32 54 89 54 C89.495 55.98 89.495 55.98 90 58 C90.66 58 91.32 58 92 58 C93.00484204 59.95585325 94.00373805 61.91476237 95 63.875 C95.556875 64.96554687 96.11375 66.05609375 96.6875 67.1796875 C98 70 98 70 98 72 C98.66 72 99.32 72 100 72 C100.9490938 74.37273451 101.89716016 76.7458014 102.83984375 79.12109375 C103.6039443 81.01719511 104.38740064 82.90562838 105.19140625 84.78515625 C105.74634766 86.09806641 105.74634766 86.09806641 106.3125 87.4375 C106.65925781 88.24058594 107.00601563 89.04367187 107.36328125 89.87109375 C108 92 108 92 107 95 C107.66 95.33 108.32 95.66 109 96 C109.57836914 97.79077148 109.57836914 97.79077148 110.03515625 100.12109375 C110.20466797 100.97509766 110.37417969 101.82910156 110.54882812 102.70898438 C110.8030957 104.05959961 110.8030957 104.05959961 111.0625 105.4375 C111.23587891 106.30310547 111.40925781 107.16871094 111.58789062 108.06054688 C113.32759071 117.01233696 114.19748619 125.88261036 114.1875 135 C114.18669434 135.7832666 114.18588867 136.5665332 114.18505859 137.37353516 C114.13308879 142.2841724 113.74208021 146.8635267 112.56640625 151.6484375 C111.89984205 154.41582819 111.48644798 157.1855554 111.0625 160 C110.17107169 165.42578021 109.13509308 170.907803 107 176 C106.34 176.33 105.68 176.66 105 177 C105.33 177.99 105.66 178.98 106 180 C105.34 180 104.68 180 104 180 C104 180.99 104 181.98 104 183 C103.34 183 102.68 183 102 183 C100.9375 181.1875 100.9375 181.1875 100 179 C100.33 178.01 100.66 177.02 101 176 C100.34 175.67 99.68 175.34 99 175 C95.70769487 168.41538974 97.21023057 160.87271463 99 154 C99.34541851 151.66842508 99.67794257 149.33491639 100 147 C100.17273438 146.10023438 100.34546875 145.20046875 100.5234375 144.2734375 C101.07282492 140.49977638 101.14644635 136.803153 101.125 133 C101.12886719 132.31421875 101.13273437 131.6284375 101.13671875 130.921875 C101.12892391 126.83738049 100.73995874 123.01104619 100 119 C100 117.33333333 100 115.66666667 100 114 C99.67 113.01 99.34 112.02 99 111 C98.86207031 110.10925781 98.72414063 109.21851563 98.58203125 108.30078125 C97.91053053 104.49260603 96.85301164 100.86647424 95.6875 97.1875 C95.46384766 96.47972412 95.24019531 95.77194824 95.00976562 95.04272461 C92.4704783 87.15809278 89.18973031 80.06587203 84.953125 72.9453125 C84 71 84 71 84 68 C83.34 68 82.68 68 82 68 C81.67 66.35 81.34 64.7 81 63 C80.34 63 79.68 63 79 63 C78.01 60.525 78.01 60.525 77 58 C76.34 58 75.68 58 75 58 C73.97171121 56.3506365 72.97716293 54.68015785 72 53 C70.68571466 51.36299905 69.33075275 49.75783908 67.9375 48.1875 C67.24527344 47.39730469 66.55304688 46.60710937 65.83984375 45.79296875 C64.18944299 43.76735842 64.18944299 43.76735842 62 44 C60.43041807 42.32278959 59.0519475 40.53205886 57.6328125 38.7265625 C55.85947056 36.85140188 54.3395946 36.04690031 52 35 C48.75 33 48.75 33 46 31 C46 30.34 46 29.68 46 29 C45.01 29 44.02 29 43 29 C43 28.34 43 27.68 43 27 C42.175 26.7525 41.35 26.505 40.5 26.25 C29.69565217 22.39130435 29.69565217 22.39130435 28 19 C27.278125 19.04125 26.55625 19.0825 25.8125 19.125 C22.72695943 18.98786486 20.83405495 18.19306597 18 17 C16.72769531 16.52240234 16.72769531 16.52240234 15.4296875 16.03515625 C14.58664062 15.71417969 13.74359375 15.39320313 12.875 15.0625 C12.02679688 14.74410156 11.17859375 14.42570313 10.3046875 14.09765625 C5.91828393 12.00853862 4.3795518 9.1142024 2.3125 4.8125 C1.65701172 3.46091797 1.65701172 3.46091797 0.98828125 2.08203125 C0.66214844 1.39496094 0.33601563 0.70789063 0 0 Z " fill="#FAF8F8" transform="translate(364,195)"/>
<path d="M0 0 C0.82371094 0.21978516 1.64742188 0.43957031 2.49609375 0.66601562 C3.35847656 0.90384766 4.22085937 1.14167969 5.109375 1.38671875 C5.95628906 1.61294922 6.80320312 1.83917969 7.67578125 2.07226562 C10.07628337 2.71999054 12.46818683 3.39303241 14.859375 4.07421875 C16.02984375 4.39777344 17.2003125 4.72132812 18.40625 5.0546875 C19.21578125 5.39113281 20.0253125 5.72757812 20.859375 6.07421875 C22.0671308 9.69748614 21.40248628 10.71568244 19.859375 14.07421875 C19.199375 14.07421875 18.539375 14.07421875 17.859375 14.07421875 C17.859375 13.41421875 17.859375 12.75421875 17.859375 12.07421875 C16.539375 12.40421875 15.219375 12.73421875 13.859375 13.07421875 C13.859375 12.41421875 13.859375 11.75421875 13.859375 11.07421875 C12.539375 11.40421875 11.219375 11.73421875 9.859375 12.07421875 C9.859375 11.41421875 9.859375 10.75421875 9.859375 10.07421875 C8.869375 10.40421875 7.879375 10.73421875 6.859375 11.07421875 C4.52297324 10.41838668 2.18948409 9.75206867 -0.140625 9.07421875 C-1.130625 9.56921875 -1.130625 9.56921875 -2.140625 10.07421875 C-1.810625 11.06421875 -1.480625 12.05421875 -1.140625 13.07421875 C0.69654641 13.77511118 0.69654641 13.77511118 2.921875 14.07421875 C7.49711182 14.93940776 11.53929097 16.34618514 15.859375 18.07421875 C15.859375 20.69535583 15.54645055 22.58356987 14.859375 25.07421875 C10.48003381 24.5546359 6.17134109 24.01746133 1.859375 23.07421875 C1.859375 22.41421875 1.859375 21.75421875 1.859375 21.07421875 C1.26125 21.28046875 0.663125 21.48671875 0.046875 21.69921875 C-2.140625 22.07421875 -2.140625 22.07421875 -5.140625 20.07421875 C-4.810625 21.72421875 -4.480625 23.37421875 -4.140625 25.07421875 C1.21363998 26.97289428 6.38775507 28.48862627 12.01171875 29.3515625 C13.859375 30.07421875 13.859375 30.07421875 15.11328125 32.140625 C15.35949219 32.77871094 15.60570312 33.41679687 15.859375 34.07421875 C13.859375 37.07421875 13.859375 37.07421875 11.76953125 37.90234375 C7.63938763 38.1462717 4.21680989 37.04225861 0.296875 35.82421875 C-0.83524414 35.49744141 -0.83524414 35.49744141 -1.99023438 35.1640625 C-5.84625824 34.00215927 -9.21698982 32.97592667 -12.140625 30.07421875 C-14.91911719 23.18839027 -13.58321358 18.86905607 -11.140625 12.07421875 C-10.645625 10.18703125 -10.645625 10.18703125 -10.140625 8.26171875 C-9.15930548 5.13376278 -8.02704123 2.74664174 -6.140625 0.07421875 C-3.57495724 -1.20861513 -2.73143907 -0.73821882 0 0 Z " fill="#F4F1F1" transform="translate(389.140625,118.92578125)"/>
<path d="M0 0 C4.43028478 3.54422782 7.21216333 7.63648999 9 13 C9.40013509 19.00202636 8.68407013 22.63185975 6 28 C5.34 28 4.68 28 4 28 C3.67 28.66 3.34 29.32 3 30 C0.09779398 31.262691 -2.97675165 32.07046394 -6 33 C-6.88429688 33.30679688 -7.76859375 33.61359375 -8.6796875 33.9296875 C-9.54851562 34.22101563 -10.41734375 34.51234375 -11.3125 34.8125 C-12.11300781 35.08707031 -12.91351563 35.36164063 -13.73828125 35.64453125 C-16.54131491 36.08507713 -17.66910092 35.55732558 -20 34 C-21.3125 32.0625 -21.3125 32.0625 -22 30 C-21.67 29.01 -21.34 28.02 -21 27 C-21.66 27 -22.32 27 -23 27 C-23.19722656 25.70255859 -23.19722656 25.70255859 -23.3984375 24.37890625 C-24.15384609 20.13586447 -25.31312712 16.04908362 -26.4765625 11.90234375 C-27.01945436 8.89212991 -26.80499703 6.92482253 -26 4 C-8.63343109 -2.15835777 -8.63343109 -2.15835777 0 0 Z M-19 10 C-17.91103333 15.75762166 -16.70663707 21.39247819 -15 27 C-9.15231932 26.47788565 -4.36301015 25.44628533 1 23 C2.13249084 19.60252747 1.86316721 17.92604978 1.25 14.4375 C1.09015625 13.46683594 0.9303125 12.49617187 0.765625 11.49609375 C0.18584504 8.66686844 0.18584504 8.66686844 -3 7 C-9.00120055 6.60647865 -13.5503258 7.2751629 -19 10 Z " fill="#F6F4F4" transform="translate(302,121)"/>
<path d="M0 0 C1.66611905 -0.042721 3.33382885 -0.04063832 5 0 C8.18733825 3.18733825 7.11977047 11.56609025 7.1328125 15.765625 C7 18 7 18 6 21 C6.66 21 7.32 21 8 21 C8.85851562 21.96679688 8.85851562 21.96679688 9.734375 22.953125 C12.63598277 25.57457754 14.39332215 25.58231835 18.25 25.75 C19.32765625 25.80671875 20.4053125 25.8634375 21.515625 25.921875 C22.33546875 25.94765625 23.1553125 25.9734375 24 26 C23.99214478 24.97060303 23.99214478 24.97060303 23.98413086 23.92041016 C23.96339044 20.82194936 23.95034924 17.72350314 23.9375 14.625 C23.92912109 13.54476562 23.92074219 12.46453125 23.91210938 11.3515625 C23.90888672 10.3203125 23.90566406 9.2890625 23.90234375 8.2265625 C23.89448853 6.79691162 23.89448853 6.79691162 23.88647461 5.33837891 C24 3 24 3 25 1 C26.98 1 28.96 1 31 1 C31 11.56 31 22.12 31 33 C26.2975 33.4021875 26.2975 33.4021875 21.5 33.8125 C20.52869141 33.91022705 19.55738281 34.0079541 18.55664062 34.10864258 C12.06450968 34.54378439 7.97038377 33.25345673 3 29 C-1.54234584 23.09495041 -2.29419666 16.82236548 -2.125 9.625 C-2.11597656 8.88894531 -2.10695313 8.15289062 -2.09765625 7.39453125 C-2.07430144 5.5962112 -2.03843836 3.79806089 -2 2 C-1.34 2 -0.68 2 0 2 C0 1.34 0 0.68 0 0 Z " fill="#F6F2F3" transform="translate(328,114)"/>
<path d="M0 0 C2.85091869 1.27799804 5.22144171 2.37896673 7 5 C7 7.9375 7 7.9375 6 11 C3.4375 13.375 3.4375 13.375 1 15 C-2.4375 13.75 -2.4375 13.75 -6 12 C-6.9375 9.8125 -6.9375 9.8125 -7 8 C-6.34 8 -5.68 8 -5 8 C-4.67 6.68 -4.34 5.36 -4 4 C-3.34 4 -2.68 4 -2 4 C-1.34 2.68 -0.68 1.36 0 0 Z " fill="#E5DDDF" transform="translate(218,473)"/>
<path d="M0 0 C0 0.66 0 1.32 0 2 C0.66 2.33 1.32 2.66 2 3 C2 6.73630334 1.52476224 7.45933587 -1.0625 10.125 C-1.701875 10.74375 -2.34125 11.3625 -3 12 C-5.31 11.34 -7.62 10.68 -10 10 C-9.67 8.02 -9.34 6.04 -9 4 C-8.01 3.67 -7.02 3.34 -6 3 C-5.34 2.34 -4.68 1.68 -4 1 C-2 0 -2 0 0 0 Z " fill="#EEE8EB" transform="translate(197,450)"/>
<path d="M0 0 C0.66 2.31 1.32 4.62 2 7 C1.34 7.433125 0.68 7.86625 0 8.3125 C-0.66 8.869375 -1.32 9.42625 -2 10 C-2 10.99 -2 11.98 -2 13 C-2.66 13 -3.32 13 -4 13 C-5.5078125 11.46875 -5.5078125 11.46875 -7.125 9.5 C-7.66382813 8.8503125 -8.20265625 8.200625 -8.7578125 7.53125 C-9.16773438 7.0259375 -9.57765625 6.520625 -10 6 C-7.82304683 0.97626191 -5.41372848 -0.29263397 0 0 Z " fill="#E9E0E2" transform="translate(469,474)"/>
<path d="M0 0 C0 6.75759049 -8.32487534 12.36864896 -12.85717773 16.92089844 C-15.89511994 19.95705802 -18.94385625 22.98216857 -22 26 C-22.66 25.67 -23.32 25.34 -24 25 C-22.44221619 23.2456027 -20.87905295 21.49653989 -19.3125 19.75 C-18.44238281 18.77546875 -17.57226562 17.8009375 -16.67578125 16.796875 C-14.24806439 14.25929066 -11.7493963 12.17009206 -9 10 C-7.50298455 8.35684845 -7.50298455 8.35684845 -6.3125 6.75 C-5.549375 5.8425 -4.78625 4.935 -4 4 C-3.34 4 -2.68 4 -2 4 C-1.34 2.68 -0.68 1.36 0 0 Z " fill="#E3DDDD" transform="translate(182,142)"/>
<path d="M0 0 C0.66 0.66 1.32 1.32 2 2 C-0.80530847 4.8546576 -3.61707696 7.70277231 -6.43505859 10.54492188 C-7.39324956 11.51318538 -8.34963982 12.48323426 -9.30419922 13.45507812 C-10.6746382 14.8497097 -12.05206367 16.23746521 -13.4296875 17.625 C-14.25710449 18.46289062 -15.08452148 19.30078125 -15.93701172 20.1640625 C-18 22 -18 22 -20 22 C-20 20 -20 20 -17.875 17.75 C-16.451875 16.38875 -16.451875 16.38875 -15 15 C-13.9374491 13.89588232 -12.87494885 12.79171588 -11.8125 11.6875 C-9 9 -9 9 -7 9 C-6.773125 8.443125 -6.54625 7.88625 -6.3125 7.3125 C-4.64103234 4.36753316 -2.44723648 2.31843456 0 0 Z " fill="#E4DDDD" transform="translate(242,207)"/>
<path d="M0 0 C1.32 0.33 2.64 0.66 4 1 C4.625 4.375 4.625 4.375 5 8 C4.34 8.66 3.68 9.32 3 10 C0.875 9.625 0.875 9.625 -1 9 C-2.0326802 6.21176345 -2.04509293 5.1322726 -1.0625 2.25 C-0.711875 1.5075 -0.36125 0.765 0 0 Z " fill="#DBD1D3" transform="translate(336,518)"/>
<path d="M0 0 C0.66 0.33 1.32 0.66 2 1 C-3.05352742 6.96348734 -8.41711741 12.53105379 -14 18 C-14.66 17.67 -15.32 17.34 -16 17 C-14.21479439 14.99388266 -12.42241288 12.9951283 -10.625 11 C-10.11710938 10.42765625 -9.60921875 9.8553125 -9.0859375 9.265625 C-7.76495095 7.80558723 -6.38599201 6.39847843 -5 5 C-4.34 5 -3.68 5 -3 5 C-3 4.34 -3 3.68 -3 3 C-2.34 3 -1.68 3 -1 3 C-0.67 2.01 -0.34 1.02 0 0 Z " fill="#E9E3E4" transform="translate(255,224)"/>
<path d="M0 0 C1.45606519 4.52092968 0.27032841 7.51648796 -1 12 C-1.66 11.01 -2.32 10.02 -3 9 C-3.66 9 -4.32 9 -5 9 C-5.33 9.66 -5.66 10.32 -6 11 C-5.39305845 7.84669446 -4.3583335 5.81111133 -2.4375 3.25 C-1.98246094 2.63640625 -1.52742188 2.0228125 -1.05859375 1.390625 C-0.70925781 0.93171875 -0.35992187 0.4728125 0 0 Z " fill="#D8CECD" transform="translate(320,209)"/>
<path d="M0 0 C1.32 0.33 2.64 0.66 4 1 C3 4 3 4 1 6 C0.01 5.67 -0.98 5.34 -2 5 C-1.34 3.35 -0.68 1.7 0 0 Z " fill="#DEC5CB" transform="translate(336,518)"/>
</svg>
